<?xml version="1.0" encoding="UTF-8" standalone="no"?>
<svg
   xmlns:dc="http://purl.org/dc/elements/1.1/"
   xmlns:cc="http://creativecommons.org/ns#"
   xmlns:rdf="http://www.w3.org/1999/02/22-rdf-syntax-ns#"
   xmlns:svg="http://www.w3.org/2000/svg"
   xmlns="http://www.w3.org/2000/svg"
   xmlns:sodipodi="http://sodipodi.sourceforge.net/DTD/sodipodi-0.dtd"
   xmlns:inkscape="http://www.inkscape.org/namespaces/inkscape"
   width="251.3078pt"
   height="225.50958pt"
   viewBox="0 0 251.3078 225.50958"
   version="1.2"
   id="svg1493"
   sodipodi:docname="rabbit_0.svg"
   inkscape:version="0.92.5 (2060ec1f9f, 2020-04-08)">
  <sodipodi:namedview
     pagecolor="#ffffff"
     bordercolor="#666666"
     borderopacity="1"
     objecttolerance="10"
     gridtolerance="10"
     guidetolerance="10"
     inkscape:pageopacity="0"
     inkscape:pageshadow="2"
     inkscape:window-width="1848"
     inkscape:window-height="1016"
     id="namedview1495"
     showgrid="false"
     inkscape:zoom="0.89393938"
     inkscape:cx="445.06374"
     inkscape:cy="-67.32853"
     inkscape:window-x="72"
     inkscape:window-y="27"
     inkscape:window-maximized="1"
     inkscape:current-layer="svg1493"
     fit-margin-top="0"
     fit-margin-left="0"
     fit-margin-right="0"
     fit-margin-bottom="0" />
  <metadata
     id="metadata1499">
    <rdf:RDF>
      <cc:Work
         rdf:about="">
        <dc:format>image/svg+xml</dc:format>
        <dc:type
           rdf:resource="http://purl.org/dc/dcmitype/StillImage" />
        <dc:title></dc:title>
      </cc:Work>
    </rdf:RDF>
  </metadata>
  <defs
     id="defs1497">
    <marker
       inkscape:isstock="true"
       style="overflow:visible;"
       id="marker7321"
       refX="0.0"
       refY="0.0"
       orient="auto"
       inkscape:stockid="Arrow2Mend">
      <path
         transform="scale(0.6) rotate(180) translate(0,0)"
         d="M 8.7185878,4.0337352 L -2.2072895,0.016013256 L 8.7185884,-4.0017078 C 6.9730900,-1.6296469 6.9831476,1.6157441 8.7185878,4.0337352 z "
         style="fill-rule:evenodd;stroke-width:0.625;stroke-linejoin:round;stroke:#000000;stroke-opacity:1;fill:#000000;fill-opacity:1"
         id="path7319" />
    </marker>
    <marker
       inkscape:stockid="Arrow2Mend"
       orient="auto"
       refY="0.0"
       refX="0.0"
       id="Arrow2Mend"
       style="overflow:visible;"
       inkscape:isstock="true"
       inkscape:collect="always">
      <path
         id="path7062"
         style="fill-rule:evenodd;stroke-width:0.625;stroke-linejoin:round;stroke:#000000;stroke-opacity:1;fill:#000000;fill-opacity:1"
         d="M 8.7185878,4.0337352 L -2.2072895,0.016013256 L 8.7185884,-4.0017078 C 6.9730900,-1.6296469 6.9831476,1.6157441 8.7185878,4.0337352 z "
         transform="scale(0.6) rotate(180) translate(0,0)" />
    </marker>
  </defs>
  <path
     style="fill:none;fill-rule:evenodd;stroke:#000000;stroke-width:0.75px;stroke-linecap:butt;stroke-linejoin:miter;stroke-opacity:1;marker-end:url(#Arrow2Mend)"
     d="M 205.87484,76.751994 142.10039,105.52465"
     id="path7033"
     inkscape:connector-curvature="0"
     sodipodi:nodetypes="cc" />
  <path
     sodipodi:nodetypes="cc"
     inkscape:connector-curvature="0"
     id="path7317"
     d="m 45.21157,76.751994 63.77445,28.772656"
     style="fill:none;fill-rule:evenodd;stroke:#000000;stroke-width:0.75px;stroke-linecap:butt;stroke-linejoin:miter;stroke-opacity:1;marker-end:url(#marker7321)" />
  <path
     style="fill:#ff0000;stroke:#000000;stroke-width:0.59999996;stroke-linecap:butt;stroke-linejoin:miter;stroke-miterlimit:2;stroke-opacity:1"
     d="m 81.82527,0.29999998 c 9.66971,0 17.33201,7.85911002 17.33201,17.33203002 0,9.47291 -7.6623,17.33202 -17.33201,17.33202 -9.47293,0 -17.13522,-7.85911 -17.13522,-17.33202 0,-9.47292 7.66229,-17.33203002 17.13522,-17.33203002 z m 0,0"
     id="path1016"
     inkscape:connector-curvature="0" />
  <path
     style="fill:#ff0000;stroke:#000000;stroke-width:0.59999996;stroke-linecap:butt;stroke-linejoin:miter;stroke-miterlimit:2;stroke-opacity:1"
     d="m 168.28203,0.29999998 c 9.66971,0 17.32547,7.85911002 17.32547,17.33203002 0,9.47291 -7.65576,17.33202 -17.32547,17.33202 -9.47293,0 -17.13521,-7.85911 -17.13521,-17.33202 0,-9.47292 7.66228,-17.33203002 17.13521,-17.33203002 z m 0,0"
     id="path1018"
     inkscape:connector-curvature="0" />
  <path
     style="fill:#ff0000;stroke:#000000;stroke-width:0.59999996;stroke-linecap:butt;stroke-linejoin:miter;stroke-miterlimit:2;stroke-opacity:1"
     d="m 81.82527,190.54554 c 9.66971,0 17.33201,7.85911 17.33201,17.33201 0,9.47293 -7.6623,17.33204 -17.33201,17.33204 -9.47293,0 -17.13522,-7.85911 -17.13522,-17.33204 0,-9.4729 7.66229,-17.33201 17.13522,-17.33201 z m 0,0"
     id="path1024"
     inkscape:connector-curvature="0" />
  <path
     style="fill:#ff0000;stroke:#000000;stroke-width:0.59999996;stroke-linecap:butt;stroke-linejoin:miter;stroke-miterlimit:2;stroke-opacity:1"
     d="m 168.28203,190.54554 c 9.66971,0 17.32547,7.85911 17.32547,17.33201 0,9.47293 -7.65576,17.33204 -17.32547,17.33204 -9.47293,0 -17.13521,-7.85911 -17.13521,-17.33204 0,-9.4729 7.66228,-17.33201 17.13521,-17.33201 z m 0,0"
     id="path1026"
     inkscape:connector-curvature="0" />
  <g
     id="g6727">
    <path
       inkscape:connector-curvature="0"
       id="path1020"
       d="m 30.03255,52.29607 c 9.46637,0 17.33204,7.65576 17.33204,17.33203 0,9.47292 -7.86567,17.12866 -17.33204,17.12866 -9.47291,0 -17.33203,-7.65574 -17.33203,-17.12866 0,-9.67627 7.85912,-17.33203 17.33203,-17.33203 z m 0,0"
       style="fill:#ff0000;stroke:#000000;stroke-width:0.59999996;stroke-linecap:butt;stroke-linejoin:miter;stroke-miterlimit:2;stroke-opacity:1" />
    <path
       inkscape:connector-curvature="0"
       id="path1022"
       d="m 30.03255,138.75283 c 9.46637,0 17.33204,7.65574 17.33204,17.33203 0,9.4729 -7.86567,17.33201 -17.33204,17.33201 -9.47291,0 -17.33203,-7.85911 -17.33203,-17.33201 0,-9.67629 7.85912,-17.33203 17.33203,-17.33203 z m 0,0"
       style="fill:#ff0000;stroke:#000000;stroke-width:0.59999996;stroke-linecap:butt;stroke-linejoin:miter;stroke-miterlimit:2;stroke-opacity:1" />
    <path
       inkscape:connector-curvature="0"
       id="path1028"
       d="m 220.27154,52.29607 c 9.47292,0 17.33201,7.65576 17.33201,17.33203 0,9.47292 -7.85909,17.12866 -17.33201,17.12866 -9.47292,0 -17.33203,-7.65574 -17.33203,-17.12866 0,-9.67627 7.85911,-17.33203 17.33203,-17.33203 z m 0,0"
       style="fill:#ff0000;stroke:#000000;stroke-width:0.59999996;stroke-linecap:butt;stroke-linejoin:miter;stroke-miterlimit:2;stroke-opacity:1" />
    <path
       inkscape:connector-curvature="0"
       id="path1030"
       d="m 220.27154,138.75283 c 9.47292,0 17.33201,7.65574 17.33201,17.33203 0,9.4729 -7.85909,17.33201 -17.33201,17.33201 -9.47292,0 -17.33203,-7.85911 -17.33203,-17.33201 0,-9.67629 7.85911,-17.33203 17.33203,-17.33203 z m 0,0"
       style="fill:#ff0000;stroke:#000000;stroke-width:0.59999996;stroke-linecap:butt;stroke-linejoin:miter;stroke-miterlimit:2;stroke-opacity:1" />
  </g>
  <path
     style="fill:none;stroke:#000000;stroke-width:0.59999996;stroke-linecap:butt;stroke-linejoin:miter;stroke-miterlimit:2;stroke-opacity:1"
     d="M 42.12298,57.53765 67.31411,32.14317"
     id="path1032"
     inkscape:connector-curvature="0" />
  <path
     style="fill:#000000;fill-opacity:1;fill-rule:evenodd;stroke:none;stroke-width:0.99999994"
     d="m 69.72826,29.72245 -6.84883,2.82088 c 2.01399,0.80692 3.42442,2.02055 4.02796,4.23789 z m 0,0"
     id="path1034"
     inkscape:connector-curvature="0" />
  <path
     style="fill:none;stroke:#000000;stroke-width:0.59999996;stroke-linecap:butt;stroke-linejoin:miter;stroke-miterlimit:2;stroke-opacity:1"
     d="m 99.15728,17.63203 h 48.36174"
     id="path1036"
     inkscape:connector-curvature="0" />
  <path
     style="fill:#000000;fill-opacity:1;fill-rule:evenodd;stroke:none;stroke-width:0.99999994"
     d="m 151.14679,17.63201 -7.05221,-2.82086 c 1.0103,1.81717 1.0103,3.83114 0,5.84513 z m 0,0"
     id="path1038"
     inkscape:connector-curvature="0" />
  <path
     style="fill:none;stroke:#000000;stroke-width:0.59999996;stroke-linecap:butt;stroke-linejoin:miter;stroke-miterlimit:2;stroke-opacity:1"
     d="M 180.37246,29.72247 205.7604,54.9136"
     id="path1040"
     inkscape:connector-curvature="0" />
  <path
     style="fill:#000000;fill-opacity:1;fill-rule:evenodd;stroke:none;stroke-width:0.99999994"
     d="m 208.1811,57.53765 -2.82088,-7.0522 c -0.80691,2.01398 -2.01398,3.42444 -4.23133,4.23134 z m 0,0"
     id="path1042"
     inkscape:connector-curvature="0" />
  <path
     style="fill:none;stroke:#000000;stroke-width:0.59999996;stroke-linecap:butt;stroke-linejoin:miter;stroke-miterlimit:2;stroke-opacity:1"
     d="M 220.27154,86.75676 V 135.3284"
     id="path1044"
     inkscape:connector-curvature="0" />
  <path
     style="fill:#000000;fill-opacity:1;fill-rule:evenodd;stroke:none;stroke-width:0.99999994"
     d="m 220.27154,138.75283 2.82089,-6.85539 c -1.81063,1.01026 -3.82461,1.01026 -5.83859,0 z m 0,0"
     id="path1046"
     inkscape:connector-curvature="0" />
  <path
     style="fill:none;stroke:#000000;stroke-width:0.59999996;stroke-linecap:butt;stroke-linejoin:miter;stroke-miterlimit:2;stroke-opacity:1"
     d="m 208.1811,168.17529 -25.19113,25.19114"
     id="path1048"
     inkscape:connector-curvature="0" />
  <path
     style="fill:#000000;fill-opacity:1;fill-rule:evenodd;stroke:none;stroke-width:0.99999994"
     d="m 180.37246,195.78714 7.05221,-2.82089 c -2.01399,-0.61009 -3.42443,-2.02055 -4.23134,-4.03453 z m 0,0"
     id="path1050"
     inkscape:connector-curvature="0" />
  <path
     style="fill:none;stroke:#000000;stroke-width:0.59999996;stroke-linecap:butt;stroke-linejoin:miter;stroke-miterlimit:2;stroke-opacity:1"
     d="M 151.14682,207.87755 H 102.5817"
     id="path1052"
     inkscape:connector-curvature="0" />
  <path
     style="fill:#000000;fill-opacity:1;fill-rule:evenodd;stroke:none;stroke-width:0.99999994"
     d="m 99.15728,207.87755 6.84885,3.02427 c -1.01028,-2.02055 -1.01028,-4.03453 0,-5.84513 z m 0,0"
     id="path1054"
     inkscape:connector-curvature="0" />
  <path
     style="fill:none;stroke:#000000;stroke-width:0.59999996;stroke-linecap:butt;stroke-linejoin:miter;stroke-miterlimit:2;stroke-opacity:1"
     d="M 69.72828,195.78712 44.53715,170.59599"
     id="path1056"
     inkscape:connector-curvature="0" />
  <path
     style="fill:#000000;fill-opacity:1;fill-rule:evenodd;stroke:none;stroke-width:0.99999994"
     d="m 42.12298,168.17529 2.82088,6.84883 c 0.60355,-2.01396 2.01399,-3.42442 4.23132,-4.02794 z m 0,0"
     id="path1058"
     inkscape:connector-curvature="0" />
  <path
     style="fill:none;stroke:#000000;stroke-width:0.59999996;stroke-linecap:butt;stroke-linejoin:miter;stroke-miterlimit:2;stroke-opacity:1"
     d="M 30.03255,138.75283 V 90.38454"
     id="path1060"
     inkscape:connector-curvature="0" />
  <path
     style="fill:#000000;fill-opacity:1;fill-rule:evenodd;stroke:none;stroke-width:0.99999994"
     d="m 30.03256,86.75676 -3.02426,7.05221 c 2.01398,-1.00372 4.02796,-1.00372 6.04194,0 z m 0,0"
     id="path1062"
     inkscape:connector-curvature="0" />
  <path
     style="fill:none;stroke:#000000;stroke-width:0.59999996;stroke-linecap:butt;stroke-linejoin:miter;stroke-miterlimit:2;stroke-opacity:1"
     d="M 36.88139,140.36662 75.57342,36.57785"
     id="path1064"
     inkscape:connector-curvature="0" />
  <path
     style="fill:#000000;fill-opacity:1;fill-rule:evenodd;stroke:none;stroke-width:0.99999994"
     d="m 76.78703,33.15343 -5.24158,5.4384 c 2.21734,-0.20336 4.02794,0.60354 5.4384,2.21735 z m 0,0"
     id="path1066"
     inkscape:connector-curvature="0" />
  <path
     style="fill:none;stroke:#000000;stroke-width:0.59999996;stroke-linecap:butt;stroke-linejoin:miter;stroke-miterlimit:2;stroke-opacity:1"
     d="M 97.54347,24.68424 201.33225,61.56562"
     id="path1068"
     inkscape:connector-curvature="0" />
  <path
     style="fill:#000000;fill-opacity:1;fill-rule:evenodd;stroke:none;stroke-width:0.99999994"
     d="m 204.75668,62.57589 -5.64176,-5.03824 c 0.40016,2.21737 -0.40673,4.02797 -2.01399,5.64178 z m 0,0"
     id="path1070"
     inkscape:connector-curvature="0" />
  <path
     style="fill:none;stroke:#000000;stroke-width:0.59999996;stroke-linecap:butt;stroke-linejoin:miter;stroke-miterlimit:2;stroke-opacity:1"
     d="M 213.21933,85.14296 176.33794,189.1351"
     id="path1072"
     inkscape:connector-curvature="0" />
  <path
     style="fill:#000000;fill-opacity:1;fill-rule:evenodd;stroke:none;stroke-width:0.99999994"
     d="m 175.33424,192.35616 5.03822,-5.4384 c -2.21736,0.20336 -4.03453,-0.40019 -5.64178,-2.01398 z m 0,0"
     id="path1074"
     inkscape:connector-curvature="0" />
  <path
     style="fill:none;stroke:#000000;stroke-width:0.59999996;stroke-linecap:butt;stroke-linejoin:miter;stroke-miterlimit:2;stroke-opacity:1"
     d="M 152.76061,201.02217 50.58564,162.53351"
     id="path1076"
     inkscape:connector-curvature="0" />
  <path
     style="fill:#000000;fill-opacity:1;fill-rule:evenodd;stroke:none;stroke-width:0.99999994"
     d="m 47.36459,161.12308 5.43839,5.24159 c -0.40017,-2.21734 0.40017,-4.03452 2.01398,-5.44495 z m 0,0"
     id="path1078"
     inkscape:connector-curvature="0" />
  <path
     style="fill:none;stroke:#000000;stroke-width:0.59999996;stroke-linecap:butt;stroke-linejoin:miter;stroke-miterlimit:2;stroke-opacity:1"
     d="M 45.54741,62.57589 149.53956,25.6945"
     id="path1080"
     inkscape:connector-curvature="0" />
  <path
     style="fill:#000000;fill-opacity:1;fill-rule:evenodd;stroke:none;stroke-width:0.99999994"
     d="m 152.76061,24.68422 -7.45895,-0.60353 c 1.61381,1.61381 2.21736,3.42442 2.02055,5.64176 z m 0,0"
     id="path1082"
     inkscape:connector-curvature="0" />
  <path
     style="fill:none;stroke:#000000;stroke-width:0.59999996;stroke-linecap:butt;stroke-linejoin:miter;stroke-miterlimit:2;stroke-opacity:1"
     d="m 175.33424,33.15343 36.88137,103.98559"
     id="path1084"
     inkscape:connector-curvature="0" />
  <path
     style="fill:#000000;fill-opacity:1;fill-rule:evenodd;stroke:none;stroke-width:0.99999994"
     d="m 213.21933,140.36664 0.60354,-7.45894 c -1.60726,1.61381 -3.42443,2.42072 -5.64177,2.01398 z m 0,0"
     id="path1086"
     inkscape:connector-curvature="0" />
  <path
     style="fill:none;stroke:#000000;stroke-width:0.59999996;stroke-linecap:butt;stroke-linejoin:miter;stroke-miterlimit:2;stroke-opacity:1"
     d="M 204.75668,162.9337 102.37834,201.4289"
     id="path1088"
     inkscape:connector-curvature="0" />
  <path
     style="fill:#000000;fill-opacity:1;fill-rule:evenodd;stroke:none;stroke-width:0.99999994"
     d="m 99.15728,202.63597 7.45239,0.40674 c -1.61382,-1.41046 -2.21735,-3.22763 -2.01399,-5.44497 z m 0,0"
     id="path1090"
     inkscape:connector-curvature="0" />
  <path
     style="fill:none;stroke:#000000;stroke-width:0.59999996;stroke-linecap:butt;stroke-linejoin:miter;stroke-miterlimit:2;stroke-opacity:1"
     d="M 76.78703,192.35616 38.08847,88.37057"
     id="path1092"
     inkscape:connector-curvature="0" />
  <path
     style="fill:#000000;fill-opacity:1;fill-rule:evenodd;stroke:none;stroke-width:0.99999994"
     d="m 36.88139,85.14294 -0.40016,7.45895 c 1.60724,-1.61381 3.42441,-2.21735 5.64175,-2.01399 z m 0,0"
     id="path1094"
     inkscape:connector-curvature="0" />
  <path
     style="fill:#000000;fill-opacity:1;fill-rule:nonzero;stroke:none;stroke-width:0.99999994"
     d="m 76.58368,12.59379 c 0.40017,0.20338 0.60353,0.60354 0.80689,0.8069 0,0.40017 0.20338,1.01028 0.40018,1.81717 l 1.01027,-1.21362 c 0.20336,-0.20338 0.40016,-0.60355 0.8069,-0.80691 0.1968,-0.40016 0.60353,-0.40016 0.80691,-0.60354 0.19679,0 0.19679,0 0.40017,0 0.40671,0 0.60353,0 0.8069,0.20338 0,0 0.20337,0.20336 0.20337,0.40016 0,0.20336 0,0.40674 -0.20337,0.60353 -0.20337,0.20338 -0.40019,0.20338 -0.60354,0.20338 -0.20336,0 -0.20336,0 -0.40674,0 -0.19679,-0.20338 -0.60352,-0.20338 -0.60352,-0.20338 -0.20338,0 -0.40018,0 -0.60356,0.20338 -0.40016,0.40673 -0.8069,1.01026 -1.41043,2.01398 l 0.80691,3.2276 c 0.20336,0.40018 0.20336,0.80692 0.40016,0.80692 0,0.20335 0,0.20335 0.20336,0.20335 0.20338,0 0.20338,0 0.40018,-0.20335 0.40673,-0.40674 0.61011,-0.60354 1.01028,-1.21365 l 0.20336,0.20338 c -0.40674,0.8069 -0.80691,1.41043 -1.41044,1.81717 -0.40674,0.40017 -0.60354,0.60353 -1.01028,0.60353 -0.20336,0 -0.60353,-0.20336 -0.80689,-0.60353 0,-0.40674 -0.40018,-1.41044 -0.8069,-3.22763 -1.00372,1.61381 -1.81062,2.82089 -2.41415,3.22763 -0.40674,0.40017 -0.80691,0.60353 -1.01028,0.60353 -0.40018,0 -0.60353,-0.20336 -0.80689,-0.40673 -0.19682,-0.1968 -0.19682,-0.1968 -0.19682,-0.60354 0,-0.19681 0,-0.40016 0.19682,-0.40016 0.20336,-0.20337 0.40671,-0.20337 0.60353,-0.20337 0.20336,0 0.40673,0 0.6101,0.20337 0.1968,0.20335 0.1968,0.20335 0.40016,0.20335 0,0 0.20338,0 0.20338,0 0.40016,-0.40672 0.8069,-0.80689 1.20707,-1.6138 0.60353,-0.8069 0.80691,-1.41044 1.01026,-1.81717 -0.40673,-1.41044 -0.60354,-2.41415 -0.60354,-2.41415 -0.20336,-0.40673 -0.40672,-0.61011 -0.6101,-0.8069 -0.19679,-0.20338 -0.60353,-0.40674 -1.00369,-0.40674 -0.20338,0 -0.20338,0 -0.40674,0.20336 v -0.40016 z m 0,0"
     id="path1096"
     inkscape:connector-curvature="0" />
  <path
     style="fill:#000000;fill-opacity:1;fill-rule:nonzero;stroke:none;stroke-width:0.99999994"
     d="m 82.22543,21.86336 c 0,-0.80692 0.20336,-1.41046 0.40674,-2.01399 0.1968,-0.40017 0.40017,-0.8069 0.80034,-1.01028 0.40673,-0.1968 0.61009,-0.40017 1.01027,-0.40017 0.40016,0 0.8069,0.20337 1.20707,0.8069 0.6101,0.60355 0.8069,1.41046 0.8069,2.42072 0,0.80034 -0.1968,1.41044 -0.40016,2.01399 -0.20337,0.40016 -0.40674,0.8069 -0.80691,1.20707 -0.20336,0.20336 -0.60353,0.20336 -1.01026,0.20336 -0.60356,0 -1.00372,-0.40674 -1.41045,-1.01027 -0.40018,-0.60354 -0.60354,-1.41044 -0.60354,-2.21733 z m 1.01027,0 c 0,1.01025 0,1.81717 0.19681,2.21733 0.20335,0.60353 0.61009,0.80691 0.80691,0.80691 0.20336,0 0.40673,-0.20338 0.60352,-0.20338 0.20338,-0.19679 0.40674,-0.40017 0.40674,-0.8069 0.20338,-0.60353 0.20338,-1.41044 0.20338,-2.41415 0,-0.60353 0,-1.20708 -0.20338,-1.81717 0,-0.40018 -0.20336,-0.60353 -0.40674,-0.80691 -0.19679,0 -0.19679,0 -0.40016,0 -0.20336,0 -0.40018,0 -0.60354,0.20338 -0.20338,0.20335 -0.40673,0.60353 -0.60354,1.21362 0,0.60355 0,1.20708 0,1.60727 z m 0,0"
     id="path1098"
     inkscape:connector-curvature="0" />
  <path
     style="fill:#000000;fill-opacity:1;fill-rule:nonzero;stroke:none;stroke-width:0.99999994"
     d="m 163.04042,12.59379 c 0.40019,0.20338 0.60355,0.60354 0.8069,0.8069 0,0.40017 0.19682,1.01028 0.60355,1.81717 l 0.80691,-1.21362 c 0.19679,-0.20338 0.40016,-0.60355 0.8069,-0.80691 0.19679,-0.40016 0.60353,-0.40016 0.80689,-0.60354 0.19682,0 0.19682,0 0.40019,0 0.40017,0 0.60353,0 0.80689,0.20338 0,0 0.20338,0.20336 0.20338,0.40016 0,0.20336 0,0.40674 -0.20338,0.60353 -0.20336,0.20338 -0.40672,0.20338 -0.60354,0.20338 -0.20335,0 -0.20335,0 -0.40672,0 -0.19682,-0.20338 -0.60354,-0.20338 -0.60354,-0.20338 -0.20338,0 -0.40017,0 -0.60354,0.20338 -0.40674,0.40673 -0.80691,1.01026 -1.41044,2.01398 l 0.80691,3.2276 c 0.19679,0.40018 0.19679,0.80692 0.40016,0.80692 0,0.20335 0,0.20335 0.20337,0.20335 0.20337,0 0.20337,0 0.40016,-0.20335 0.40674,-0.40674 0.80692,-0.60354 1.01029,-1.21365 l 0.20335,0.20338 c -0.40672,0.8069 -0.8069,1.41043 -1.41043,1.81717 -0.40674,0.40017 -0.61011,0.60353 -1.01028,0.60353 -0.20336,0 -0.60353,-0.20336 -0.8069,-0.60353 0,-0.40674 -0.40018,-1.41044 -0.80689,-3.22763 -1.00372,1.61381 -1.81062,2.82089 -2.41415,3.22763 -0.40674,0.40017 -0.8069,0.60353 -1.01028,0.60353 -0.40018,0 -0.60354,-0.20336 -0.80692,-0.40673 -0.20335,-0.1968 -0.20335,-0.1968 -0.20335,-0.60354 0,-0.19681 0,-0.40016 0.20335,-0.40016 0.20338,-0.20337 0.40674,-0.20337 0.60356,-0.20337 0.20336,0 0.40674,0 0.60352,0.20337 0.20338,0.20335 0.20338,0.20335 0.40674,0.20335 0,0 0.20338,0 0.20338,0 0.40017,-0.40672 0.80689,-0.80689 1.20707,-1.6138 0.60353,-0.8069 1.01027,-1.41044 1.01027,-1.81717 -0.40674,-1.41044 -0.6101,-2.41415 -0.6101,-2.41415 -0.19681,-0.40673 -0.40017,-0.61011 -0.60355,-0.8069 -0.1968,-0.20338 -0.60352,-0.40674 -1.00369,-0.40674 -0.20338,0 -0.20338,0 -0.40674,0.20336 v -0.40016 z m 0,0"
     id="path1104"
     inkscape:connector-curvature="0" />
  <path
     style="fill:#000000;fill-opacity:1;fill-rule:nonzero;stroke:none;stroke-width:0.99999994"
     d="m 169.4891,19.24582 1.61381,-0.8069 h 0.1968 v 5.4384 c 0,0.40673 0,0.61011 0,0.61011 0,0.19679 0,0.19679 0.20337,0.19679 0,0.20338 0.20335,0.20338 0.60353,0.20338 v 0.20336 h -2.41415 V 24.8876 c 0.1968,0 0.40017,0 0.60354,-0.20338 0,0 0,0 0.1968,0 0,-0.19679 0,-0.40017 0,-0.8069 V 20.4529 c 0,-0.60353 0,-0.8069 0,-1.0037 -0.1968,0 -0.1968,-0.20338 -0.1968,-0.20338 0,0 -0.20337,0 -0.20337,0 -0.20337,0 -0.20337,0 -0.40017,0.20338 z m 0,0"
     id="path1106"
     inkscape:connector-curvature="0" />
  <path
     style="fill:#000000;fill-opacity:1;fill-rule:nonzero;stroke:none;stroke-width:0.99999994"
     d="m 24.79096,64.38651 c 0.20338,0.40673 0.40017,0.60353 0.60354,1.01027 0.20337,0.20335 0.40673,0.8069 0.60353,1.81062 l 0.8069,-1.20708 c 0.20337,-0.40019 0.60356,-0.60354 0.80692,-1.01028 0.40016,-0.1968 0.60353,-0.40018 0.8069,-0.60353 0.20335,0 0.40017,0 0.60353,0 0.20338,0 0.40017,0 0.60354,0.20335 0.20336,0.20338 0.20336,0.40018 0.20336,0.60355 0,0.20337 0,0.40672 0,0.40672 -0.20336,0.19681 -0.40673,0.19681 -0.60352,0.19681 -0.20338,0 -0.40674,0 -0.40674,0 -0.40017,-0.19681 -0.60354,-0.19681 -0.60354,-0.19681 -0.20337,0 -0.40018,0.19681 -0.60353,0.40019 -0.40018,0.20336 -0.80692,0.80689 -1.41044,1.81061 l 0.80689,3.22761 c 0,0.60354 0.20337,0.80689 0.20337,1.01027 0.19682,0 0.19682,0 0.40018,0 0,0 0.20335,0 0.40016,-0.20338 0.20337,-0.20335 0.61009,-0.60353 0.80691,-1.01026 l 0.40674,0.20337 c -0.40674,0.60354 -1.01028,1.20708 -1.61381,1.81061 -0.20336,0.20336 -0.60355,0.40674 -0.80692,0.40674 -0.40016,0 -0.60352,-0.20338 -0.8069,-0.60354 -0.1968,-0.20337 -0.40016,-1.41045 -0.8069,-3.22762 -1.0037,1.81717 -1.81061,2.82089 -2.41415,3.42442 -0.40673,0.20336 -0.80691,0.40674 -1.21363,0.40674 -0.1968,0 -0.40017,0 -0.60354,-0.20338 -0.19682,-0.20336 -0.19682,-0.40016 -0.19682,-0.60353 0,-0.20336 0,-0.40017 0.19682,-0.60355 0,0 0.20337,-0.20335 0.40674,-0.20335 0.1968,0 0.40016,0.20335 0.60352,0.40673 0.20338,0 0.40018,0.19681 0.40018,0.19681 0.20337,0 0.20337,-0.19681 0.40673,-0.19681 0.19681,-0.20338 0.60354,-0.80691 1.20708,-1.61381 0.40016,-0.8069 0.8069,-1.41043 1.01028,-1.61381 -0.40674,-1.61379 -0.61012,-2.42071 -0.61012,-2.61751 -0.19679,-0.40674 -0.40016,-0.60355 -0.60352,-0.8069 -0.19682,-0.20337 -0.60356,-0.20337 -1.00372,-0.20337 -0.20336,0 -0.40673,0 -0.60353,0 v -0.40017 z m 0,0"
     id="path1112"
     inkscape:connector-curvature="0" />
  <path
     style="fill:#000000;fill-opacity:1;fill-rule:nonzero;stroke:none;stroke-width:0.99999994"
     d="m 31.03626,70.435 h 3.42442 v 0.20336 l -2.21077,6.44868 h -0.40674 l 1.81717,-5.84514 h -1.61381 c -0.40672,0 -0.80689,0 -0.80689,0.19682 -0.40019,0 -0.60355,0.20336 -0.80691,0.61009 z m 0,0"
     id="path1114"
     inkscape:connector-curvature="0" />
  <path
     style="fill:#000000;fill-opacity:1;fill-rule:nonzero;stroke:none;stroke-width:0.99999994"
     d="m 24.79096,150.84326 c 0.20338,0.40673 0.40017,0.60354 0.60354,1.01027 0.20337,0.19681 0.40673,0.80691 0.60353,1.81061 l 0.8069,-1.20707 c 0.20337,-0.40673 0.60356,-0.60354 0.80692,-1.01027 0.40016,-0.19681 0.60353,-0.40018 0.8069,-0.40018 0.20335,-0.20336 0.40017,-0.20336 0.60353,-0.20336 0.20338,0 0.40017,0 0.60354,0.20336 0.20336,0.20337 0.20336,0.40018 0.20336,0.60356 0,0.20335 0,0.40016 0,0.40016 -0.20336,0.20336 -0.40673,0.20336 -0.60352,0.20336 -0.20338,0 -0.40674,0 -0.40674,0 -0.40017,0 -0.60354,-0.20336 -0.60354,-0.20336 -0.20337,0 -0.40018,0.20336 -0.60353,0.40673 -0.40018,0.20337 -0.80692,0.8069 -1.41044,1.81062 l 0.80689,3.2276 c 0,0.60354 0.20337,0.8069 0.20337,1.00372 0.19682,0 0.19682,0.20336 0.40018,0.20336 0,0 0.20335,-0.20336 0.40016,-0.40018 0.20337,-0.20336 0.61009,-0.60352 0.80691,-1.01026 l 0.40674,0.20336 c -0.40674,0.60354 -1.01028,1.20708 -1.61381,1.81062 -0.20336,0.20336 -0.60355,0.40674 -0.80692,0.40674 -0.40016,0 -0.60352,-0.20338 -0.8069,-0.60355 -0.1968,-0.20336 -0.40016,-1.41043 -0.8069,-3.2276 -1.0037,1.81717 -1.81061,2.82087 -2.41415,3.42441 -0.40673,0.20336 -0.80691,0.40674 -1.21363,0.40674 -0.1968,0 -0.40017,0 -0.60354,-0.20338 -0.19682,-0.20336 -0.19682,-0.40017 -0.19682,-0.60353 0,-0.20337 0,-0.40673 0.19682,-0.60355 0,0 0.20337,-0.20336 0.40674,-0.20336 0.1968,0 0.40016,0.20336 0.60352,0.40018 0.20338,0 0.40018,0.20336 0.40018,0.20336 0.20337,0 0.20337,0 0.40673,-0.20336 0.19681,-0.19682 0.60354,-0.80034 1.20708,-1.60725 0.40016,-0.8069 0.8069,-1.41044 1.01028,-1.61382 -0.40674,-1.6138 -0.61012,-2.42069 -0.61012,-2.42069 -0.19679,-0.40018 -0.40016,-0.80691 -0.60352,-1.00372 -0.19682,-0.20335 -0.60356,-0.20335 -1.00372,-0.20335 -0.20336,0 -0.40673,0 -0.60353,0 v -0.40019 z m 0,0"
     id="path1120"
     inkscape:connector-curvature="0" />
  <path
     style="fill:#000000;fill-opacity:1;fill-rule:nonzero;stroke:none;stroke-width:0.99999994"
     d="m 34.46068,156.89176 c -0.40018,0.19681 -0.80034,0.19681 -1.0037,0.40017 -0.40674,0 -0.60355,0.20336 -0.80691,0.60355 -0.40016,0.20335 -0.60354,0.40671 -0.60354,0.80689 -0.20336,0.20337 -0.40672,0.60354 -0.60354,1.01028 0.60354,-0.20338 1.00372,-0.40674 1.41044,-0.40674 0.40017,0 0.80691,0.20336 1.20707,0.60353 0.40018,0.20337 0.40018,0.8069 0.40018,1.21364 0,0.60354 0,1.20707 -0.40018,1.61381 -0.40016,0.40017 -1.01026,0.80034 -1.61379,0.80034 -0.40018,0 -0.8069,-0.19681 -1.00372,-0.40017 -0.60354,-0.60355 -1.01026,-1.41044 -1.01026,-2.21734 0,-0.60354 0.20336,-1.20707 0.40672,-1.81062 0.19681,-0.40673 0.60354,-0.80691 1.00372,-1.21362 0.40674,-0.40019 0.8069,-0.80691 1.20707,-0.80691 0.40674,-0.19681 0.8069,-0.19681 1.01026,-0.19681 z m -3.01769,3.22105 c 0,0.40674 0,0.80691 0,1.01027 0,0.40017 0,0.60354 0,1.00372 0.19682,0.40671 0.40018,0.61009 0.60354,0.8069 0.20338,0.20336 0.40018,0.20336 0.60354,0.20336 0.20336,0 0.40017,0 0.80691,-0.20336 0.20336,-0.40019 0.20336,-0.8069 0.20336,-1.20708 0,-0.60354 0,-1.01028 -0.20336,-1.41044 -0.40674,-0.40674 -0.60355,-0.60353 -1.01027,-0.60353 -0.1968,0 -0.1968,0 -0.40018,0 -0.20336,0.19679 -0.40672,0.19679 -0.60354,0.40016 z m 0,0"
     id="path1122"
     inkscape:connector-curvature="0" />
  <path
     style="fill:#000000;fill-opacity:1;fill-rule:nonzero;stroke:none;stroke-width:0.99999994"
     d="m 76.58368,202.83933 c 0.40017,0.20338 0.60353,0.60354 0.80689,0.8069 0,0.40017 0.20338,0.80691 0.40018,1.81063 l 1.01027,-1.20708 c 0.20336,-0.20338 0.40016,-0.60355 0.8069,-0.80691 0.1968,-0.40016 0.60353,-0.60354 0.80691,-0.60354 0.19679,0 0.19679,0 0.40017,0 0.40671,0 0.60353,0 0.8069,0.20338 0,0 0.20337,0.1968 0.20337,0.40016 0,0.20336 0,0.40018 -0.20337,0.60353 -0.20337,0 -0.40019,0.20338 -0.60354,0.20338 -0.20336,0 -0.20336,0 -0.40674,-0.20338 -0.19679,0 -0.60352,0 -0.60352,0 -0.20338,0 -0.40018,0 -0.60356,0.20338 -0.40016,0.40017 -0.8069,1.0037 -1.41043,2.01398 l 0.80691,3.22761 c 0.20336,0.40017 0.20336,0.80033 0.40016,0.80033 0,0.20338 0,0.20338 0.20336,0.20338 0.20338,0 0.20338,0 0.40018,-0.20338 0.40673,-0.40016 0.61011,-0.60353 1.01028,-1.20707 l 0.20336,0.20338 c -0.40674,0.8069 -0.80691,1.41043 -1.41044,1.81061 -0.40674,0.40672 -0.60354,0.40672 -1.01028,0.40672 -0.20336,0 -0.60353,0 -0.80689,-0.60352 0,-0.20338 -0.40018,-1.21365 -0.8069,-3.02427 -1.00372,1.61382 -1.81062,2.82089 -2.41415,3.22107 -0.40674,0.40672 -0.80691,0.40672 -1.01028,0.40672 -0.40018,0 -0.60353,0 -0.80689,-0.20336 -0.19682,-0.20336 -0.19682,-0.40016 -0.19682,-0.60354 0,-0.20336 0,-0.40674 0.19682,-0.40674 0.20336,-0.19679 0.40671,-0.19679 0.60353,-0.19679 0.20336,0 0.40673,0 0.6101,0.19679 0.1968,0.20338 0.1968,0.20338 0.40016,0.20338 0,0 0.20338,0 0.20338,-0.20338 0.40016,-0.19679 0.8069,-0.60353 1.20707,-1.41043 0.60353,-0.80034 0.80691,-1.41043 1.01026,-1.81061 -0.40673,-1.6138 -0.60354,-2.42071 -0.60354,-2.42071 -0.20336,-0.40017 -0.40672,-0.60355 -0.6101,-0.8069 -0.19679,-0.19682 -0.60353,-0.40018 -1.00369,-0.40018 -0.20338,0 -0.20338,0 -0.40674,0 v -0.20336 z m 0,0"
     id="path1128"
     inkscape:connector-curvature="0" />
  <path
     style="fill:#000000;fill-opacity:1;fill-rule:nonzero;stroke:none;stroke-width:0.99999994"
     d="m 86.05659,208.88127 -0.20337,0.8069 h -2.01398 l -0.40673,0.80691 c 0.80691,0.20336 1.41043,0.40674 2.02055,1.01026 0.40016,0.40018 0.60353,0.80691 0.60353,1.41045 0,0.40018 0,0.60354 -0.20337,1.0037 -0.20337,0.20337 -0.40016,0.6101 -0.60354,0.80692 -0.20336,0.20335 -0.40674,0.20335 -0.60353,0.40673 -0.40673,0.1968 -0.80691,0.1968 -1.21364,0.1968 -0.40017,0 -0.60354,0 -0.80034,-0.1968 -0.20338,0 -0.20338,-0.20338 -0.20338,-0.40673 0,0 0,-0.19682 0,-0.19682 0.20338,0 0.20338,-0.20336 0.40018,-0.20336 0,0 0,0 0.20337,0.20336 0,0 0.20336,0 0.20336,0.19682 0.40016,0 0.60354,0.20335 0.8069,0.20335 0.40018,0 0.60355,-0.20335 1.00372,-0.40017 0.20336,-0.40673 0.40674,-0.6101 0.40674,-1.01026 0,-0.40017 -0.20338,-0.80691 -0.40674,-1.20708 -0.20338,-0.20335 -0.60354,-0.60354 -1.00372,-0.80691 -0.40674,0 -0.8069,-0.20336 -1.41043,-0.20336 l 1.20707,-2.42071 z m 0,0"
     id="path1130"
     inkscape:connector-curvature="0" />
  <path
     style="fill:#000000;fill-opacity:1;fill-rule:nonzero;stroke:none;stroke-width:0.99999994"
     d="m 215.0365,64.38651 c 0.1968,0.40673 0.40017,0.60353 0.60354,1.01027 0.1968,0.20335 0.40018,0.8069 0.60353,1.81062 l 0.8069,-1.20708 c 0.20337,-0.40019 0.60356,-0.60354 0.80692,-1.01028 0.40016,-0.1968 0.60353,-0.40018 0.8069,-0.60353 0.19681,0 0.40017,0 0.60353,0 0.19681,0 0.40017,0 0.60354,0.20335 0.20336,0.20338 0.20336,0.40018 0.20336,0.60355 0,0.20337 0,0.40672 0,0.40672 -0.20336,0.19681 -0.40673,0.19681 -0.61009,0.19681 -0.19681,0 -0.40017,0 -0.60353,0 -0.19681,-0.19681 -0.40018,-0.19681 -0.60355,-0.19681 0,0 -0.20336,0.19681 -0.40016,0.40019 -0.40674,0.20336 -1.01027,0.80689 -1.41044,1.81061 l 0.80689,3.22761 c 0,0.60354 0.19681,0.80689 0.19681,1.01027 0.20338,0 0.20338,0 0.20338,0 0.20336,0 0.40016,0 0.60352,-0.20338 0.20337,-0.20335 0.60355,-0.60353 0.80691,-1.01026 l 0.40017,0.20337 c -0.40017,0.60354 -1.00371,1.20708 -1.60724,1.81061 -0.40674,0.20336 -0.60355,0.40674 -0.80692,0.40674 -0.40672,0 -0.60352,-0.20338 -0.8069,-0.60354 -0.20335,-0.20337 -0.40673,-1.41045 -1.01027,-3.22762 -0.8069,1.81717 -1.60724,2.82089 -2.21733,3.42442 -0.40017,0.20336 -0.80036,0.40674 -1.20708,0.40674 -0.20338,0 -0.40017,0 -0.60354,-0.20338 -0.20336,-0.20336 -0.20336,-0.40016 -0.20336,-0.60353 0,-0.20336 0,-0.40017 0.20336,-0.60355 0,0 0.20337,-0.20335 0.40016,-0.20335 0.20338,0 0.40674,0.20335 0.6101,0.40673 0.19682,0 0.40019,0.19681 0.40019,0.19681 0.20336,0 0.20336,-0.19681 0.40017,-0.19681 0.20336,-0.20338 0.61009,-0.80691 1.21363,-1.61381 0.40016,-0.8069 0.8069,-1.41043 1.0037,-1.61381 -0.40016,-1.61379 -0.60354,-2.42071 -0.8069,-2.61751 0,-0.40674 -0.1968,-0.60355 -0.40017,-0.8069 -0.20336,-0.20337 -0.60355,-0.20337 -1.01026,-0.20337 -0.19681,0 -0.40017,0 -0.60354,0 v -0.40017 z m 0,0"
     id="path1136"
     inkscape:connector-curvature="0" />
  <path
     style="fill:#000000;fill-opacity:1;fill-rule:nonzero;stroke:none;stroke-width:0.99999994"
     d="m 224.70622,75.67658 -0.40018,1.20708 H 220.4749 V 76.6803 c 1.01028,-1.00372 1.81717,-1.8106 2.42071,-2.42072 0.40017,-0.60353 0.60353,-1.20707 0.60353,-1.8106 0,-0.40017 -0.20336,-0.8069 -0.40671,-1.01026 -0.19682,-0.19682 -0.60356,-0.40018 -0.80036,-0.40018 -0.40672,0 -0.6101,0.20336 -1.01027,0.20336 -0.20336,0.19682 -0.40673,0.60353 -0.40673,1.00372 h -0.19679 c 0,-0.60354 0.19679,-1.20708 0.60352,-1.41045 0.40017,-0.40017 0.80691,-0.60353 1.20707,-0.60353 0.60356,0 1.01027,0.20336 1.41046,0.60353 0.20336,0.40673 0.40671,0.80691 0.40671,1.21364 0,0.19681 0,0.60354 -0.20335,1.0037 -0.20336,0.40674 -0.60355,1.01028 -1.20708,1.61381 -0.8069,0.8069 -1.21364,1.41046 -1.41043,1.61381 h 1.60725 c 0.40671,0 0.61009,0 0.8069,-0.20335 0.20336,0 0.20336,0 0.40671,0 0,-0.20338 0.19682,-0.20338 0.19682,-0.4002 z m 0,0"
     id="path1138"
     inkscape:connector-curvature="0" />
  <path
     style="fill:#000000;fill-opacity:1;fill-rule:nonzero;stroke:none;stroke-width:0.99999994"
     d="m 215.0365,150.84326 c 0.1968,0.40673 0.40017,0.60354 0.60354,1.01027 0.1968,0.19681 0.40018,0.80691 0.60353,1.81061 l 0.8069,-1.20707 c 0.20337,-0.40673 0.60356,-0.60354 0.80692,-1.01027 0.40016,-0.19681 0.60353,-0.40018 0.8069,-0.40018 0.19681,-0.20336 0.40017,-0.20336 0.60353,-0.20336 0.19681,0 0.40017,0 0.60354,0.20336 0.20336,0.20337 0.20336,0.40018 0.20336,0.60356 0,0.20335 0,0.40016 0,0.40016 -0.20336,0.20336 -0.40673,0.20336 -0.61009,0.20336 -0.19681,0 -0.40017,0 -0.60353,0 -0.19681,0 -0.40018,-0.20336 -0.60355,-0.20336 0,0 -0.20336,0.20336 -0.40016,0.40673 -0.40674,0.20337 -1.01027,0.8069 -1.41044,1.81062 l 0.80689,3.2276 c 0,0.60354 0.19681,0.8069 0.19681,1.00372 0.20338,0 0.20338,0.20336 0.20338,0.20336 0.20336,0 0.40016,-0.20336 0.60352,-0.40018 0.20337,-0.20336 0.60355,-0.60352 0.80691,-1.01026 l 0.40017,0.20336 c -0.40017,0.60354 -1.00371,1.20708 -1.60724,1.81062 -0.40674,0.20336 -0.60355,0.40674 -0.80692,0.40674 -0.40672,0 -0.60352,-0.20338 -0.8069,-0.60355 -0.20335,-0.20336 -0.40673,-1.41043 -1.01027,-3.2276 -0.8069,1.81717 -1.60724,2.82087 -2.21733,3.42441 -0.40017,0.20336 -0.80036,0.40674 -1.20708,0.40674 -0.20338,0 -0.40017,0 -0.60354,-0.20338 -0.20336,-0.20336 -0.20336,-0.40017 -0.20336,-0.60353 0,-0.20337 0,-0.40673 0.20336,-0.60355 0,0 0.20337,-0.20336 0.40016,-0.20336 0.20338,0 0.40674,0.20336 0.6101,0.40018 0.19682,0 0.40019,0.20336 0.40019,0.20336 0.20336,0 0.20336,0 0.40017,-0.20336 0.20336,-0.19682 0.61009,-0.80034 1.21363,-1.60725 0.40016,-0.8069 0.8069,-1.41044 1.0037,-1.61382 -0.40016,-1.6138 -0.60354,-2.42069 -0.8069,-2.42069 0,-0.40018 -0.1968,-0.80691 -0.40017,-1.00372 -0.20336,-0.20335 -0.60355,-0.20335 -1.01026,-0.20335 -0.19681,0 -0.40017,0 -0.60354,0 v -0.40019 z m 0,0"
     id="path1144"
     inkscape:connector-curvature="0" />
  <path
     style="fill:#000000;fill-opacity:1;fill-rule:nonzero;stroke:none;stroke-width:0.99999994"
     d="m 220.67828,158.09883 c 0.19679,-0.40016 0.40016,-0.8069 0.8069,-1.01026 0.19679,-0.19681 0.60353,-0.19681 1.00369,-0.19681 0.60356,0 1.01027,0 1.21365,0.40017 0.19681,0.20336 0.19681,0.60355 0.19681,0.8069 0,0.40018 -0.19681,1.01027 -0.8069,1.41044 0.40671,0.20338 0.8069,0.40017 1.01026,0.80691 0.20335,0.20337 0.20335,0.60354 0.20335,1.01026 0,0.40018 -0.20335,1.00371 -0.60352,1.41045 -0.40674,0.40017 -1.01027,0.80034 -2.02055,0.80034 -0.40017,0 -0.60353,0 -0.8069,-0.19681 -0.19679,-0.20336 -0.19679,-0.20336 -0.19679,-0.40672 0,0 0,-0.19681 0,-0.19681 0.19679,0 0.19679,0 0.40016,0 0,0 0.20336,0 0.20336,0 0,0 0.20338,0 0.40017,0.19681 0.20338,0 0.20338,0 0.40674,0.20336 0,0 0.20336,0 0.40016,0 0.20338,0 0.60356,-0.20336 0.80691,-0.40017 0.20336,-0.20338 0.40674,-0.61009 0.40674,-1.01027 0,-0.20337 -0.20338,-0.40018 -0.20338,-0.60354 -0.20336,-0.20336 -0.20336,-0.40674 -0.40671,-0.40674 0,-0.19679 -0.19682,-0.19679 -0.40018,-0.40016 -0.40018,0 -0.60354,-0.20337 -0.8069,-0.20337 h -0.20338 c 0.20338,-0.20337 0.6101,-0.20337 0.8069,-0.40016 0.20338,0 0.40674,-0.20338 0.60356,-0.40674 0,-0.19681 0.20335,-0.60354 0.20335,-0.8069 0,-0.19682 -0.20335,-0.60353 -0.40017,-0.80034 -0.20336,-0.20338 -0.40674,-0.20338 -0.8069,-0.20338 -0.40674,0 -0.80691,0.20338 -1.21364,0.8069 z m 0,0"
     id="path1146"
     inkscape:connector-curvature="0" />
  <path
     style="fill:#000000;fill-opacity:1;fill-rule:nonzero;stroke:none;stroke-width:0.99999994"
     d="m 163.04042,202.83933 c 0.40019,0.20338 0.60355,0.60354 0.8069,0.8069 0,0.40017 0.19682,0.80691 0.60355,1.81063 l 0.80691,-1.20708 c 0.19679,-0.20338 0.40016,-0.60355 0.8069,-0.80691 0.19679,-0.40016 0.60353,-0.60354 0.80689,-0.60354 0.19682,0 0.19682,0 0.40019,0 0.40017,0 0.60353,0 0.80689,0.20338 0,0 0.20338,0.1968 0.20338,0.40016 0,0.20336 0,0.40018 -0.20338,0.60353 -0.20336,0 -0.40672,0.20338 -0.60354,0.20338 -0.20335,0 -0.20335,0 -0.40672,-0.20338 -0.19682,0 -0.60354,0 -0.60354,0 -0.20338,0 -0.40017,0 -0.60354,0.20338 -0.40674,0.40017 -0.80691,1.0037 -1.41044,2.01398 l 0.80691,3.22761 c 0.19679,0.40017 0.19679,0.80033 0.40016,0.80033 0,0.20338 0,0.20338 0.20337,0.20338 0.20337,0 0.20337,0 0.40016,-0.20338 0.40674,-0.40016 0.80692,-0.60353 1.01029,-1.20707 l 0.20335,0.20338 c -0.40672,0.8069 -0.8069,1.41043 -1.41043,1.81061 -0.40674,0.40672 -0.61011,0.40672 -1.01028,0.40672 -0.20336,0 -0.60353,0 -0.8069,-0.60352 0,-0.20338 -0.40018,-1.21365 -0.80689,-3.02427 -1.00372,1.61382 -1.81062,2.82089 -2.41415,3.22107 -0.40674,0.40672 -0.8069,0.40672 -1.01028,0.40672 -0.40018,0 -0.60354,0 -0.80692,-0.20336 -0.20335,-0.20336 -0.20335,-0.40016 -0.20335,-0.60354 0,-0.20336 0,-0.40674 0.20335,-0.40674 0.20338,-0.19679 0.40674,-0.19679 0.60356,-0.19679 0.20336,0 0.40674,0 0.60352,0.19679 0.20338,0.20338 0.20338,0.20338 0.40674,0.20338 0,0 0.20338,0 0.20338,-0.20338 0.40017,-0.19679 0.80689,-0.60353 1.20707,-1.41043 0.60353,-0.80034 1.01027,-1.41043 1.01027,-1.81061 -0.40674,-1.6138 -0.6101,-2.42071 -0.6101,-2.42071 -0.19681,-0.40017 -0.40017,-0.60355 -0.60355,-0.8069 -0.1968,-0.19682 -0.60352,-0.40018 -1.00369,-0.40018 -0.20338,0 -0.20338,0 -0.40674,0 v -0.20336 z m 0,0"
     id="path1152"
     inkscape:connector-curvature="0" />
  <path
     style="fill:#000000;fill-opacity:1;fill-rule:nonzero;stroke:none;stroke-width:0.99999994"
     d="m 172.91351,212.91579 v 0.60354 h -0.8069 v 1.81061 h -0.8069 v -1.81061 h -2.82088 v -0.60354 l 3.02425,-4.23133 h 0.60353 v 4.23133 z m -1.6138,0 v -3.22762 l -2.21735,3.22762 z m 0,0"
     id="path1154"
     inkscape:connector-curvature="0" />
  <path
     style="fill:#000000;fill-opacity:1;fill-rule:nonzero;stroke:none;stroke-width:0.99999994"
     d="m 128.37638,55.92386 7.25557,-3.02425 v 0.60354 l -6.24531,2.62407 6.24531,2.82089 v 0.60353 l -7.25557,-3.2276 z m 0,0"
     id="path1240"
     inkscape:connector-curvature="0" />
  <path
     style="fill:#000000;fill-opacity:1;fill-rule:nonzero;stroke:none;stroke-width:0.99999994"
     d="m 134.62168,55.92386 7.25557,-3.02425 v 0.60354 l -6.2453,2.62407 6.2453,2.82089 v 0.60353 l -7.25557,-3.2276 z m 0,0"
     id="path1242"
     inkscape:connector-curvature="0" />
  <path
     style="fill:#000000;fill-opacity:1;fill-rule:nonzero;stroke:none;stroke-width:0.99999994"
     d="m 141.07034,55.92386 7.05878,-3.02425 v 0.60354 l -6.04849,2.62407 6.04849,2.82089 v 0.60353 l -7.05878,-3.2276 z m 0,0"
     id="path1244"
     inkscape:connector-curvature="0" />
  <path
     style="fill:#000000;fill-opacity:1;fill-rule:nonzero;stroke:none;stroke-width:0.99999994"
     d="m 149.93972,51.48917 2.61753,-1.41044 h 0.20336 v 8.86938 c 0,0.60353 0,0.80691 0,1.00369 0.20336,0.20338 0.20336,0.20338 0.40674,0.40674 0.1968,0 0.40016,0 0.80033,0 v 0.40018 h -3.82458 v -0.40018 c 0.60353,0 0.8069,0 1.00369,0 0.20338,-0.20336 0.20338,-0.20336 0.20338,-0.40674 0.20336,0 0.20336,-0.40016 0.20336,-1.00369 v -5.64177 c 0,-0.80691 0,-1.21362 -0.20336,-1.41044 0,-0.20337 0,-0.20337 -0.20338,-0.40673 0,0 -0.19679,0 -0.19679,0 -0.20337,0 -0.61011,0 -0.8069,0.20336 z m 0,0"
     id="path1246"
     inkscape:connector-curvature="0" />
  <path
     style="fill:#000000;fill-opacity:1;fill-rule:nonzero;stroke:none;stroke-width:0.99999994"
     d="m 163.04042,50.07873 v 0.40672 c -0.80689,0 -1.20707,0.19681 -1.81717,0.40019 -0.40017,0.20336 -0.80691,0.40016 -1.20707,0.80689 -0.40018,0.40019 -0.80692,1.00372 -1.01027,1.41044 -0.19681,0.60354 -0.40017,1.20708 -0.60353,1.81061 0.60353,-0.40016 1.41044,-0.8069 2.21734,-0.8069 0.60353,0 1.21363,0.40674 1.81717,1.01028 0.40017,0.60352 0.80691,1.20708 0.80691,2.21734 0,0.80691 -0.40674,1.61381 -0.80691,2.21734 -0.60354,1.01026 -1.61381,1.41046 -2.62407,1.41046 -0.60356,0 -1.20708,-0.20338 -1.81062,-0.80692 -0.80689,-0.8069 -1.41045,-2.01397 -1.41045,-3.42443 0,-1.01027 0.20337,-1.81717 0.60356,-2.62407 0.40016,-1.00371 0.80689,-1.60725 1.61379,-2.21078 0.60354,-0.8069 1.41046,-1.21364 2.01398,-1.41045 0.60355,-0.20335 1.20707,-0.40672 1.61381,-0.40672 z m -4.83485,5.44495 c 0,0.60354 -0.20337,1.20707 -0.20337,1.60726 0,0.60353 0.20337,1.01027 0.40018,1.61379 0.20336,0.60355 0.40672,1.01029 0.80688,1.41045 0.20338,0.20336 0.60356,0.40672 0.80692,0.40672 0.60354,0 1.01028,-0.20336 1.20707,-0.6101 0.40674,-0.60352 0.6101,-1.20707 0.6101,-1.81059 0,-1.01027 -0.20336,-1.61381 -0.6101,-2.42073 -0.19679,-0.60352 -0.80691,-0.8069 -1.41043,-0.8069 -0.19682,0 -0.40018,0 -0.60356,0 -0.20335,0.20338 -0.60352,0.40674 -1.00369,0.6101 z m 0,0"
     id="path1248"
     inkscape:connector-curvature="0" />
  <path
     style="fill:#000000;fill-opacity:1;fill-rule:nonzero;stroke:none;stroke-width:0.99999994"
     d="m 0,112.95815 7.25557,-3.02425 v 0.40018 l -6.24529,2.82089 6.24529,2.62407 v 0.60354 L 0,113.35833 Z m 0,0"
     id="path1250"
     inkscape:connector-curvature="0" />
  <path
     style="fill:#000000;fill-opacity:1;fill-rule:nonzero;stroke:none;stroke-width:0.99999994"
     d="m 6.44867,112.95815 7.05876,-3.02425 v 0.40018 l -6.04849,2.82089 6.04849,2.62407 v 0.60354 l -7.05876,-3.02425 z m 0,0"
     id="path1252"
     inkscape:connector-curvature="0" />
  <path
     style="fill:#000000;fill-opacity:1;fill-rule:nonzero;stroke:none;stroke-width:0.99999994"
     d="m 12.70052,112.95815 7.25558,-3.02425 v 0.40018 l -6.25186,2.82089 6.25186,2.62407 v 0.60354 l -7.25558,-3.02425 z m 0,0"
     id="path1254"
     inkscape:connector-curvature="0" />
  <path
     style="fill:#000000;fill-opacity:1;fill-rule:nonzero;stroke:none;stroke-width:0.99999994"
     d="m 22.57362,112.55144 c -0.80691,-0.60355 -1.20707,-1.20708 -1.41044,-1.60727 -0.40019,-0.40671 -0.40019,-0.80689 -0.40019,-1.21362 0,-0.60355 0.19682,-1.20708 0.80036,-1.81062 0.40672,-0.40672 1.21363,-0.60353 2.02053,-0.60353 0.80034,0 1.41046,0.19681 2.01399,0.60353 0.40016,0.40016 0.8069,1.00372 0.8069,1.60724 0,0.40673 -0.20336,0.80691 -0.40674,1.21365 -0.40016,0.40016 -1.00369,0.8069 -1.8106,1.41043 1.0037,0.60354 1.41044,1.20708 1.8106,1.61381 0.40674,0.40017 0.60355,1.00371 0.60355,1.60724 0,0.6101 -0.40017,1.41046 -0.80035,1.81717 -0.6101,0.60355 -1.41701,0.80691 -2.21735,0.80691 -1.01026,0 -1.81717,-0.40672 -2.4207,-1.01027 -0.40019,-0.40017 -0.60354,-1.00371 -0.60354,-1.61381 0,-0.40016 0.20335,-0.8069 0.40017,-1.20707 0.40674,-0.60354 1.01026,-1.01026 1.61381,-1.61379 z m 1.20708,-0.80692 c 0.60352,-0.60354 1.01026,-1.0037 1.21364,-1.20706 0.19679,-0.40018 0.19679,-0.80691 0.19679,-1.20708 0,-0.40673 0,-0.80691 -0.40017,-1.21365 -0.20336,-0.1968 -0.8069,-0.40016 -1.20708,-0.40016 -0.61009,0 -1.01026,0.20336 -1.21363,0.40016 -0.40018,0.40674 -0.60354,0.6101 -0.60354,1.01027 0,0.40017 0.20336,0.60355 0.20336,0.8069 0.20338,0.40018 0.40018,0.60356 0.60355,0.80692 z m -0.80691,1.21363 c -0.40017,0.19682 -0.60354,0.60354 -0.80034,1.00372 -0.40674,0.40674 -0.40674,1.01027 -0.40674,1.41043 0,0.6101 0.20336,1.21364 0.60354,1.61381 0.20337,0.40674 0.80689,0.60355 1.21363,0.60355 0.60355,0 1.00372,-0.19681 1.41046,-0.40019 0.40016,-0.40671 0.40016,-0.80689 0.40016,-1.20707 0,-0.40672 0,-0.6101 -0.20337,-1.01026 -0.40017,-0.60353 -1.0037,-1.20708 -2.21734,-2.01399 z m 0,0"
     id="path1256"
     inkscape:connector-curvature="0" />
  <path
     style="fill:#000000;fill-opacity:1;fill-rule:nonzero;stroke:none;stroke-width:0.99999994"
     d="m 0,112.95815 7.25557,-3.02425 v 0.40018 l -6.24529,2.82089 6.24529,2.62407 v 0.60354 L 0,113.35833 Z m 0,0"
     id="path1258"
     inkscape:connector-curvature="0" />
  <path
     style="fill:#000000;fill-opacity:1;fill-rule:nonzero;stroke:none;stroke-width:0.99999994"
     d="m 6.44867,112.95815 7.05876,-3.02425 v 0.40018 l -6.04849,2.82089 6.04849,2.62407 v 0.60354 l -7.05876,-3.02425 z m 0,0"
     id="path1260"
     inkscape:connector-curvature="0" />
  <path
     style="fill:#000000;fill-opacity:1;fill-rule:nonzero;stroke:none;stroke-width:0.99999994"
     d="m 12.70052,112.95815 7.25558,-3.02425 v 0.40018 l -6.25186,2.82089 6.25186,2.62407 v 0.60354 l -7.25558,-3.02425 z m 0,0"
     id="path1262"
     inkscape:connector-curvature="0" />
  <path
     style="fill:#000000;fill-opacity:1;fill-rule:nonzero;stroke:none;stroke-width:0.99999994"
     d="m 112.25143,218.76091 7.25557,-3.02425 v 0.60356 l -6.2453,2.61751 6.2453,2.62407 v 0.60354 l -7.25557,-3.02426 z m 0,0"
     id="path1264"
     inkscape:connector-curvature="0" />
  <path
     style="fill:#000000;fill-opacity:1;fill-rule:nonzero;stroke:none;stroke-width:0.99999994"
     d="m 118.7001,218.76091 7.05877,-3.02425 v 0.60356 l -6.04851,2.61751 6.04851,2.62407 v 0.60354 l -7.05877,-3.02426 z m 0,0"
     id="path1266"
     inkscape:connector-curvature="0" />
  <path
     style="fill:#000000;fill-opacity:1;fill-rule:nonzero;stroke:none;stroke-width:0.99999994"
     d="m 124.95196,218.76091 7.25557,-3.02425 v 0.60356 l -6.25187,2.61751 6.25187,2.62407 v 0.60354 l -7.25557,-3.02426 z m 0,0"
     id="path1268"
     inkscape:connector-curvature="0" />
  <path
     style="fill:#000000;fill-opacity:1;fill-rule:nonzero;stroke:none;stroke-width:0.99999994"
     d="m 134.82504,218.35419 c -0.8069,-0.60354 -1.41043,-1.20707 -1.61379,-1.60726 -0.19682,-0.40671 -0.40019,-0.80689 -0.40019,-1.21362 0,-0.60355 0.40019,-1.20708 0.8069,-1.61382 0.60355,-0.60352 1.20708,-0.80033 2.21736,-0.80033 0.80689,0 1.41043,0.19681 2.01397,0.60353 0.40018,0.60354 0.60354,1.00372 0.60354,1.60725 0,0.40672 0,0.8069 -0.40016,1.21364 -0.20338,0.40016 -0.80692,0.8069 -1.61382,1.41043 0.8069,0.60354 1.41044,1.20707 1.81062,1.61381 0.40673,0.60355 0.40673,1.00372 0.40673,1.60724 0,0.80691 -0.20337,1.41046 -0.80691,1.81717 -0.40672,0.60356 -1.20708,0.80691 -2.01397,0.80691 -1.01028,0 -1.81718,-0.20335 -2.42071,-0.80691 -0.40018,-0.60352 -0.60355,-1.20707 -0.60355,-1.61379 0,-0.60354 0.20337,-1.01028 0.40019,-1.41045 0.40671,-0.40017 0.80689,-1.01026 1.61379,-1.6138 z m 1.20707,-0.8069 c 0.6101,-0.40017 1.01029,-1.00371 1.21364,-1.20707 0.19682,-0.40018 0.19682,-0.60356 0.19682,-1.01028 0,-0.60353 -0.19682,-1.00371 -0.40017,-1.41045 -0.40019,-0.1968 -0.80691,-0.40016 -1.20708,-0.40016 -0.61011,0 -1.01028,0.20336 -1.41044,0.40016 -0.20337,0.40674 -0.40674,0.80692 -0.40674,1.21365 0,0.1968 0,0.40017 0.20337,0.60352 0.20337,0.40018 0.40017,0.60356 0.60353,0.80692 z m -0.8069,1.21362 c -0.40017,0.40017 -0.80033,0.80691 -1.0037,1.20708 -0.20337,0.40017 -0.20337,0.80691 -0.20337,1.20707 0,0.80691 0.20337,1.21365 0.40674,1.61381 0.40016,0.40674 0.80033,0.60355 1.41044,0.60355 0.60353,0 1.00371,-0.19681 1.41043,-0.40019 0.19682,-0.40671 0.40018,-0.80689 0.40018,-1.20707 0,-0.40672 0,-0.6101 -0.20336,-1.01026 -0.40017,-0.40674 -1.20708,-1.20708 -2.21736,-2.01399 z m 0,0"
     id="path1270"
     inkscape:connector-curvature="0" />
  <path
     style="fill:#000000;fill-opacity:1;fill-rule:nonzero;stroke:none;stroke-width:0.99999994"
     d="m 112.25143,218.76091 7.25557,-3.02425 v 0.60356 l -6.2453,2.61751 6.2453,2.62407 v 0.60354 l -7.25557,-3.02426 z m 0,0"
     id="path1272"
     inkscape:connector-curvature="0" />
  <path
     style="fill:#000000;fill-opacity:1;fill-rule:nonzero;stroke:none;stroke-width:0.99999994"
     d="m 118.7001,218.76091 7.05877,-3.02425 v 0.60356 l -6.04851,2.61751 6.04851,2.62407 v 0.60354 l -7.05877,-3.02426 z m 0,0"
     id="path1274"
     inkscape:connector-curvature="0" />
  <path
     style="fill:#000000;fill-opacity:1;fill-rule:nonzero;stroke:none;stroke-width:0.99999994"
     d="m 124.95196,218.76091 7.25557,-3.02425 v 0.60356 l -6.25187,2.61751 6.25187,2.62407 v 0.60354 l -7.25557,-3.02426 z m 0,0"
     id="path1276"
     inkscape:connector-curvature="0" />
  <path
     style="fill:#000000;fill-opacity:1;fill-rule:nonzero;stroke:none;stroke-width:0.99999994"
     d="m 224.9096,112.95815 7.25555,-3.02425 v 0.40018 l -6.25186,2.82089 6.25186,2.62407 v 0.60354 l -7.25555,-3.02425 z m 0,0"
     id="path1278"
     inkscape:connector-curvature="0" />
  <path
     style="fill:#000000;fill-opacity:1;fill-rule:nonzero;stroke:none;stroke-width:0.99999994"
     d="m 231.1549,112.95815 7.25556,-3.02425 v 0.40018 l -6.24531,2.82089 6.24531,2.62407 v 0.60354 l -7.25556,-3.02425 z m 0,0"
     id="path1280"
     inkscape:connector-curvature="0" />
  <path
     style="fill:#000000;fill-opacity:1;fill-rule:nonzero;stroke:none;stroke-width:0.99999994"
     d="m 237.60355,112.95815 7.05221,-3.02425 v 0.40018 l -6.04194,2.82089 6.04194,2.62407 v 0.60354 l -7.05221,-3.02425 z m 0,0"
     id="path1282"
     inkscape:connector-curvature="0" />
  <path
     style="fill:#000000;fill-opacity:1;fill-rule:nonzero;stroke:none;stroke-width:0.99999994"
     d="m 247.4832,112.55144 c -0.80689,-0.60355 -1.417,-1.20708 -1.6138,-1.60727 -0.20337,-0.40671 -0.40674,-0.80689 -0.40674,-1.21362 0,-0.60355 0.40674,-1.20708 0.80692,-1.81062 0.60353,-0.40672 1.21362,-0.60353 2.01397,-0.60353 0.80691,0 1.6138,0.19681 2.02053,0.60353 0.60356,0.40016 0.80035,1.00372 0.80035,1.60724 0,0.40673 -0.19679,0.80691 -0.40017,1.21365 -0.20336,0.40016 -0.80691,0.8069 -1.6138,1.41043 0.80689,0.60354 1.41044,1.20708 1.6138,1.61381 0.40017,0.40017 0.60354,1.00371 0.60354,1.60724 0,0.6101 -0.20337,1.41046 -0.8069,1.81717 -0.60355,0.60355 -1.20708,0.80691 -2.21735,0.80691 -1.00372,0 -1.60724,-0.40672 -2.21735,-1.01027 -0.40017,-0.40017 -0.60354,-1.00371 -0.60354,-1.61381 0,-0.40016 0,-0.8069 0.40674,-1.20707 0.40018,-0.60354 0.80691,-1.01026 1.6138,-1.61379 z m 1.20708,-0.80692 c 0.60354,-0.60354 1.00371,-1.0037 1.20707,-1.20706 0,-0.40018 0.20337,-0.80691 0.20337,-1.20708 0,-0.40673 -0.20337,-0.80691 -0.40673,-1.21365 -0.40017,-0.1968 -0.80034,-0.40016 -1.41044,-0.40016 -0.40016,0 -0.80035,0.20336 -1.20707,0.40016 -0.20337,0.40674 -0.40017,0.6101 -0.40017,1.01027 0,0.40017 0,0.60355 0.1968,0.8069 0,0.40018 0.20337,0.60356 0.61009,0.80692 z m -0.80689,1.21363 c -0.40019,0.19682 -0.80691,0.60354 -1.01028,1.00372 -0.1968,0.40674 -0.40018,1.01027 -0.40018,1.41043 0,0.6101 0.20338,1.21364 0.60355,1.61381 0.40672,0.40674 0.80691,0.60355 1.41043,0.60355 0.60355,0 1.01027,-0.19681 1.20708,-0.40019 0.40673,-0.40671 0.61009,-0.80689 0.61009,-1.20707 0,-0.40672 -0.20336,-0.6101 -0.40673,-1.01026 -0.20336,-0.60353 -1.0037,-1.20708 -2.01396,-2.01399 z m 0,0"
     id="path1284"
     inkscape:connector-curvature="0" />
  <path
     style="fill:#000000;fill-opacity:1;fill-rule:nonzero;stroke:none;stroke-width:0.99999994"
     d="m 224.9096,112.95815 7.25555,-3.02425 v 0.40018 l -6.25186,2.82089 6.25186,2.62407 v 0.60354 l -7.25555,-3.02425 z m 0,0"
     id="path1286"
     inkscape:connector-curvature="0" />
  <path
     style="fill:#000000;fill-opacity:1;fill-rule:nonzero;stroke:none;stroke-width:0.99999994"
     d="m 231.1549,112.95815 7.25556,-3.02425 v 0.40018 l -6.24531,2.82089 6.24531,2.62407 v 0.60354 l -7.25556,-3.02425 z m 0,0"
     id="path1288"
     inkscape:connector-curvature="0" />
  <path
     style="fill:#000000;fill-opacity:1;fill-rule:nonzero;stroke:none;stroke-width:0.99999994"
     d="m 237.60355,112.95815 7.05221,-3.02425 v 0.40018 l -6.04194,2.82089 6.04194,2.62407 v 0.60354 l -7.05221,-3.02425 z m 0,0"
     id="path1290"
     inkscape:connector-curvature="0" />
  <path
     style="fill:#000000;fill-opacity:1;fill-rule:nonzero;stroke:none;stroke-width:0.99999994"
     d="m 110.64419,9.16937 7.05219,-3.02424 v 0.60355 l -6.04849,2.62407 6.04849,2.61751 v 0.60353 l -7.05219,-3.02425 z m 0,0"
     id="path1292"
     inkscape:connector-curvature="0" />
  <path
     style="fill:#000000;fill-opacity:1;fill-rule:nonzero;stroke:none;stroke-width:0.99999994"
     d="m 116.88949,9.16937 7.25557,-3.02424 v 0.60355 l -6.24531,2.62407 6.24531,2.61751 v 0.60353 l -7.25557,-3.02425 z m 0,0"
     id="path1294"
     inkscape:connector-curvature="0" />
  <path
     style="fill:#000000;fill-opacity:1;fill-rule:nonzero;stroke:none;stroke-width:0.99999994"
     d="m 123.13479,9.16937 7.25557,-3.02424 v 0.60355 l -6.2453,2.62407 6.2453,2.61751 v 0.60353 l -7.25557,-3.02425 z m 0,0"
     id="path1296"
     inkscape:connector-curvature="0" />
  <path
     style="fill:#000000;fill-opacity:1;fill-rule:nonzero;stroke:none;stroke-width:0.99999994"
     d="m 133.01443,8.76264 c -0.8069,-0.60353 -1.21364,-1.20707 -1.41044,-1.60725 -0.20336,-0.40671 -0.40673,-0.8069 -0.40673,-1.21363 0,-0.60354 0.20337,-1.20707 0.80691,-1.81062 0.40017,-0.40673 1.20708,-0.60353 2.01397,-0.60353 0.8069,0 1.41044,0.1968 2.01397,0.60353 0.6101,0.40018 0.80692,1.01027 0.80692,1.61382 0,0.40017 -0.19682,0.8069 -0.40018,1.20707 -0.40674,0.40017 -0.8069,0.8069 -1.81717,1.41044 1.01027,0.60354 1.61381,1.20707 1.81717,1.61381 0.40018,0.40016 0.60355,1.00372 0.60355,1.61381 0,0.80034 -0.20337,1.41044 -0.80691,1.8106 -0.60354,0.60355 -1.41045,0.80691 -2.21735,0.80691 -1.00371,0 -1.81061,-0.20336 -2.21735,-1.01027 -0.60353,-0.40016 -0.8069,-1.00372 -0.8069,-1.60724 0,-0.40673 0.20337,-0.80691 0.6101,-1.21365 0.1968,-0.60352 0.80035,-1.00369 1.41044,-1.6138 z m 1.20708,-0.80034 c 0.80691,-0.40673 1.0037,-1.01027 1.20707,-1.21362 0.20337,-0.40019 0.20337,-0.80692 0.20337,-1.20708 0,-0.40019 0,-0.80691 -0.40674,-1.20708 -0.19679,-0.20338 -0.60353,-0.40673 -1.20707,-0.40673 -0.40018,0 -1.00371,0.20335 -1.20708,0.40673 -0.40672,0.40017 -0.60353,0.60354 -0.60353,1.0037 0,0.40674 0.19681,0.60354 0.19681,0.80691 0.20336,0.40673 0.40672,0.60355 0.61009,0.8069 z m -0.8069,1.20707 c -0.40018,0.40017 -0.60355,0.60355 -0.80691,1.01027 -0.20336,0.60354 -0.40017,1.00372 -0.40017,1.41045 0,0.80034 0.19681,1.20708 0.60353,1.60724 0.40019,0.40674 0.8069,0.60353 1.41045,0.60353 0.40017,0 1.0037,-0.19679 1.20707,-0.40017 0.40674,-0.40016 0.60353,-0.8069 0.60353,-1.20708 0,-0.40671 -0.19679,-0.60352 -0.40016,-1.01025 -0.40674,-0.40018 -1.01027,-1.20708 -2.21734,-2.01399 z m 0,0"
     id="path1298"
     inkscape:connector-curvature="0" />
  <path
     style="fill:#000000;fill-opacity:1;fill-rule:nonzero;stroke:none;stroke-width:0.99999994"
     d="m 110.64419,9.16937 7.05219,-3.02424 v 0.60355 l -6.04849,2.62407 6.04849,2.61751 v 0.60353 l -7.05219,-3.02425 z m 0,0"
     id="path1300"
     inkscape:connector-curvature="0" />
  <path
     style="fill:#000000;fill-opacity:1;fill-rule:nonzero;stroke:none;stroke-width:0.99999994"
     d="m 116.88949,9.16937 7.25557,-3.02424 v 0.60355 l -6.24531,2.62407 6.24531,2.61751 v 0.60353 l -7.25557,-3.02425 z m 0,0"
     id="path1302"
     inkscape:connector-curvature="0" />
  <path
     style="fill:#000000;fill-opacity:1;fill-rule:nonzero;stroke:none;stroke-width:0.99999994"
     d="m 123.13479,9.16937 7.25557,-3.02424 v 0.60355 l -6.2453,2.62407 6.2453,2.61751 v 0.60353 l -7.25557,-3.02425 z m 0,0"
     id="path1304"
     inkscape:connector-curvature="0" />
  <path
     style="fill:#000000;fill-opacity:1;fill-rule:nonzero;stroke:none;stroke-width:0.99999994"
     d="m 18.54566,37.38475 7.05221,-3.2276 v 0.60353 l -6.04849,2.82089 6.04849,2.62407 v 0.60354 l -7.05221,-3.22761 z m 0,0"
     id="path1306"
     inkscape:connector-curvature="0" />
  <path
     style="fill:#000000;fill-opacity:1;fill-rule:nonzero;stroke:none;stroke-width:0.99999994"
     d="m 24.79096,37.38475 7.25557,-3.2276 v 0.60353 l -6.2453,2.82089 6.2453,2.62407 v 0.60354 l -7.25557,-3.22761 z m 0,0"
     id="path1308"
     inkscape:connector-curvature="0" />
  <path
     style="fill:#000000;fill-opacity:1;fill-rule:nonzero;stroke:none;stroke-width:0.99999994"
     d="m 31.03626,37.38475 7.25556,-3.2276 v 0.60353 l -6.24529,2.82089 6.24529,2.62407 v 0.60354 l -7.25556,-3.22761 z m 0,0"
     id="path1310"
     inkscape:connector-curvature="0" />
  <path
     style="fill:#000000;fill-opacity:1;fill-rule:nonzero;stroke:none;stroke-width:0.99999994"
     d="m 40.10902,32.74669 2.41415,-1.20707 h 0.20336 v 8.66602 c 0,0.60354 0.20335,1.00372 0.20335,1.20708 0,0 0.19681,0.20335 0.19681,0.20335 0.20337,0.20338 0.61011,0.20338 1.01027,0.20338 v 0.19681 h -3.83115 v -0.19681 c 0.40674,0 0.8069,0 0.8069,-0.20338 0.20338,0 0.20338,-0.20335 0.40674,-0.20335 0,-0.20336 0,-0.60354 0,-1.20708 v -5.64176 c 0,-0.61011 0,-1.21363 0,-1.41045 0,0 -0.20336,-0.20336 -0.20336,-0.20336 -0.20338,-0.20338 -0.20338,-0.20338 -0.40018,-0.20338 -0.20336,0 -0.40673,0 -0.80689,0.20338 z m 0,0"
     id="path1312"
     inkscape:connector-curvature="0" />
  <path
     style="fill:#000000;fill-opacity:1;fill-rule:nonzero;stroke:none;stroke-width:0.99999994"
     d="M 53.00634,31.53962 V 31.743 c -0.60353,0.1968 -1.21363,0.1968 -1.6138,0.40017 -0.40019,0.20336 -0.8069,0.60352 -1.20708,1.01026 -0.40672,0.40017 -0.8069,0.80034 -1.01028,1.41045 -0.40016,0.40017 -0.60352,1.0037 -0.8069,1.81061 0.8069,-0.60353 1.41046,-0.80691 2.21736,-0.80691 0.8069,0 1.41043,0.20338 1.81717,0.80691 0.60353,0.60355 0.80034,1.41044 0.80034,2.21734 0,0.80691 -0.19681,1.61381 -0.80034,2.42071 -0.6101,0.80691 -1.41046,1.20708 -2.42072,1.20708 -0.80691,0 -1.41043,-0.20336 -1.81717,-0.60355 -1.00371,-1.01027 -1.41043,-2.21733 -1.41043,-3.62778 0,-0.8069 0.20336,-1.81717 0.40672,-2.61752 0.40018,-0.80689 1.00371,-1.6138 1.61381,-2.21734 0.80034,-0.6101 1.41044,-1.01026 2.01398,-1.21363 0.60354,-0.40018 1.20707,-0.40018 1.81061,-0.40018 z m -4.63806,5.2416 c -0.20336,0.80035 -0.20336,1.20707 -0.20336,1.81061 0,0.40017 0,1.01028 0.20336,1.41045 0.20338,0.60352 0.40674,1.20708 0.8069,1.41044 0.20338,0.20335 0.60356,0.40673 1.01028,0.40673 0.40018,0 0.80689,-0.20338 1.20708,-0.61009 0.20337,-0.40018 0.40017,-1.00372 0.40017,-1.81062 0,-0.80691 0,-1.61381 -0.40017,-2.21735 -0.40019,-0.60354 -0.8069,-1.01027 -1.6138,-1.01027 0,0 -0.20338,0 -0.60356,0.20337 -0.20336,0 -0.40016,0.20336 -0.8069,0.40673 z m 0,0"
     id="path1314"
     inkscape:connector-curvature="0" />
  <path
     style="fill:#000000;fill-opacity:1;fill-rule:nonzero;stroke:none;stroke-width:0.99999994"
     d="m 82.82897,170.596 7.25557,-3.22762 v 0.60355 l -6.2453,2.62407 6.2453,2.82087 v 0.60355 l -7.25557,-3.22762 z m 0,0"
     id="path1316"
     inkscape:connector-curvature="0" />
  <path
     style="fill:#000000;fill-opacity:1;fill-rule:nonzero;stroke:none;stroke-width:0.99999994"
     d="m 89.27764,170.596 7.05875,-3.22762 v 0.60355 l -6.04848,2.62407 6.04848,2.82087 v 0.60355 l -7.05875,-3.22762 z m 0,0"
     id="path1318"
     inkscape:connector-curvature="0" />
  <path
     style="fill:#000000;fill-opacity:1;fill-rule:nonzero;stroke:none;stroke-width:0.99999994"
     d="m 95.52951,170.596 7.25556,-3.22762 v 0.60355 l -6.25186,2.62407 6.25186,2.82087 v 0.60355 l -7.25556,-3.22762 z m 0,0"
     id="path1320"
     inkscape:connector-curvature="0" />
  <path
     style="fill:#000000;fill-opacity:1;fill-rule:nonzero;stroke:none;stroke-width:0.99999994"
     d="m 104.39232,165.95794 2.62407,-1.20707 h 0.19682 v 8.666 c 0,0.60355 0,1.00372 0,1.00372 0.20336,0.20336 0.20336,0.40674 0.40672,0.40674 0.20338,0 0.40018,0.19679 1.00371,0.19679 v 0.20338 h -4.02796 v -0.20338 c 0.60354,0 0.80691,-0.19679 1.01028,-0.19679 0.19679,0 0.19679,-0.20338 0.40017,-0.20338 0,-0.20336 0,-0.60353 0,-1.20708 v -5.64175 c 0,-0.6101 0,-1.21364 0,-1.41045 -0.20338,-0.20337 -0.20338,-0.20337 -0.20338,-0.40673 -0.19679,0 -0.19679,0 -0.40016,0 -0.20337,0 -0.40674,0 -0.80691,0.20336 z m 0,0"
     id="path1322"
     inkscape:connector-curvature="0" />
  <path
     style="fill:#000000;fill-opacity:1;fill-rule:nonzero;stroke:none;stroke-width:0.99999994"
     d="m 117.49302,164.75087 v 0.19679 c -0.80691,0 -1.20707,0.20338 -1.61381,0.40674 -0.40017,0.20338 -1.00369,0.40018 -1.41043,1.01027 -0.40018,0.40019 -0.60356,0.80035 -1.00372,1.20708 -0.20336,0.60354 -0.40671,1.20707 -0.60353,1.81062 0.80034,-0.40018 1.41043,-0.60355 2.21077,-0.60355 0.61012,0 1.21365,0.20337 1.81719,0.8069 0.60353,0.60355 0.80689,1.20708 0.80689,2.21736 0,0.80689 -0.20336,1.61379 -0.80689,2.21734 -0.60354,1.0037 -1.41045,1.41044 -2.42071,1.41044 -0.80691,0 -1.41043,-0.20336 -1.81063,-0.80691 -1.01026,-0.80691 -1.61379,-2.01398 -1.61379,-3.42441 0,-1.01027 0.20336,-1.81717 0.60353,-2.62409 0.40674,-0.80033 1.01026,-1.60724 1.61381,-2.21078 0.8069,-0.61009 1.41044,-1.21363 2.01398,-1.41701 0.60353,-0.19679 1.21363,-0.19679 1.81717,-0.19679 z m -4.83487,5.23502 c 0,0.80691 0,1.21365 0,1.61381 0,0.60355 0,1.01027 0.20338,1.61381 0.19682,0.60353 0.40017,1.01027 0.80034,1.41044 0.20335,0.20338 0.61009,0.40017 1.01027,0.40017 0.40016,0 0.8069,-0.19679 1.01028,-0.60353 0.40016,-0.40017 0.60353,-1.00372 0.60353,-1.81062 0,-1.01027 -0.20337,-1.61379 -0.60353,-2.21735 -0.20338,-0.8069 -0.8069,-1.01025 -1.41046,-1.01025 -0.20336,0 -0.40674,0 -0.61009,0 -0.19681,0.20335 -0.60352,0.40673 -1.00372,0.60352 z m 0,0"
     id="path1324"
     inkscape:connector-curvature="0" />
  <path
     style="fill:#000000;fill-opacity:1;fill-rule:nonzero;stroke:none;stroke-width:0.99999994"
     d="m 154.37442,142.58399 7.05221,-3.22763 v 0.60355 l -6.04851,2.62408 6.04851,2.82088 v 0.60353 l -7.05221,-3.2276 z m 0,0"
     id="path1326"
     inkscape:connector-curvature="0" />
  <path
     style="fill:#000000;fill-opacity:1;fill-rule:nonzero;stroke:none;stroke-width:0.99999994"
     d="m 160.61972,142.58399 7.25557,-3.22763 v 0.60355 l -6.2453,2.62408 6.2453,2.82088 v 0.60353 l -7.25557,-3.2276 z m 0,0"
     id="path1328"
     inkscape:connector-curvature="0" />
  <path
     style="fill:#000000;fill-opacity:1;fill-rule:nonzero;stroke:none;stroke-width:0.99999994"
     d="m 167.06839,142.58399 7.0522,-3.22763 v 0.60355 l -6.04194,2.62408 6.04194,2.82088 v 0.60353 l -7.0522,-3.2276 z m 0,0"
     id="path1330"
     inkscape:connector-curvature="0" />
  <path
     style="fill:#000000;fill-opacity:1;fill-rule:nonzero;stroke:none;stroke-width:0.99999994"
     d="m 175.93776,137.94593 2.42072,-1.20708 h 0.40017 v 8.66602 c 0,0.60353 0,0.80689 0,1.0037 0,0.20337 0.20335,0.40673 0.20335,0.40673 0.19682,0 0.60356,0 1.00372,0.19682 v 0.20335 h -3.82458 v -0.20335 c 0.40017,-0.19682 0.80689,-0.19682 1.00369,-0.19682 0,0 0.20338,-0.20336 0.20338,-0.40673 0,0 0,-0.40017 0,-1.0037 v -5.64834 c 0,-0.80034 0,-1.20708 0,-1.41044 0,-0.1968 0,-0.1968 -0.20338,-0.40016 0,0 -0.1968,0 -0.40016,0 -0.20336,0 -0.40674,0 -0.60353,0.20336 z m 0,0"
     id="path1332"
     inkscape:connector-curvature="0" />
  <path
     style="fill:#000000;fill-opacity:1;fill-rule:nonzero;stroke:none;stroke-width:0.99999994"
     d="m 188.8351,136.73885 v 0.19681 c -0.60354,0 -1.20707,0.20336 -1.61381,0.40673 -0.40018,0.20337 -0.8069,0.40018 -1.20708,1.0037 -0.40673,0.40674 -0.8069,0.80692 -1.01027,1.21365 -0.40016,0.60352 -0.60354,1.20708 -0.8069,1.8106 0.8069,-0.40016 1.61382,-0.60352 2.21735,-0.60352 0.8069,0 1.41044,0.20336 2.02054,0.8069 0.40017,0.60353 0.60353,1.20708 0.60353,2.21735 0,0.8069 -0.20336,1.6138 -0.8069,2.21733 -0.60353,1.00372 -1.41045,1.41043 -2.4207,1.41043 -0.60355,0 -1.20708,-0.20336 -1.81062,-0.80689 -1.01027,-0.8069 -1.41045,-2.01397 -1.41045,-3.42443 0,-1.01026 0.19682,-1.81717 0.60354,-2.62407 0.20338,-0.80691 0.80691,-1.60725 1.61381,-2.21735 0.60354,-0.80033 1.20707,-1.20707 1.81062,-1.41043 0.80691,-0.19681 1.20707,-0.19681 1.81717,-0.19681 z m -4.63806,5.23504 c -0.1968,0.6101 -0.1968,1.21362 -0.1968,1.6138 0,0.60354 0.1968,1.01028 0.1968,1.61381 0.20336,0.60354 0.6101,1.01026 0.8069,1.41044 0.40674,0.20336 0.60354,0.40018 1.01027,0.40018 0.40018,0 0.8069,-0.19682 1.20708,-0.60355 0.40674,-0.40017 0.60354,-1.0037 0.60354,-1.8106 0,-1.01028 -0.1968,-1.61382 -0.60354,-2.42072 -0.40018,-0.60353 -0.8069,-0.80691 -1.41043,-0.80691 -0.20338,0 -0.40018,0 -0.60355,0 -0.20337,0.20338 -0.60353,0.40674 -1.01027,0.60355 z m 0,0"
     id="path1334"
     inkscape:connector-curvature="0" />
  <g
     id="g7716"
     transform="translate(-6.822382,18.094144)">
    <path
       inkscape:connector-curvature="0"
       id="path1336"
       d="m 58.64811,88.77073 7.25557,-3.01769 v 0.60354 l -6.25187,2.61752 6.25187,2.82088 v 0.60355 l -7.25557,-3.22106 z m 0,0"
       style="fill:#000000;fill-opacity:1;fill-rule:nonzero;stroke:none;stroke-width:0.99999994" />
    <path
       inkscape:connector-curvature="0"
       id="path1338"
       d="m 65.09677,88.77073 7.05222,-3.01769 v 0.60354 l -6.04196,2.61752 6.04196,2.82088 v 0.60355 l -7.05222,-3.22106 z m 0,0"
       style="fill:#000000;fill-opacity:1;fill-rule:nonzero;stroke:none;stroke-width:0.99999994" />
    <path
       inkscape:connector-curvature="0"
       id="path1340"
       d="m 71.34207,88.77073 7.25557,-3.01769 v 0.60354 l -6.2453,2.61752 6.2453,2.82088 v 0.60355 l -7.25557,-3.22106 z m 0,0"
       style="fill:#000000;fill-opacity:1;fill-rule:nonzero;stroke:none;stroke-width:0.99999994" />
    <path
       inkscape:connector-curvature="0"
       id="path1342"
       d="m 80.21145,84.33604 2.61752,-1.41043 h 0.20337 v 8.86937 c 0,0.60355 0,0.80691 0,1.01027 0.20336,0.1968 0.20336,0.1968 0.40017,0.40016 0.20335,0 0.40673,0 0.80691,0 v 0.40674 h -3.82459 v -0.40674 c 0.60353,0 0.80688,0 1.0037,0 0.20337,-0.20336 0.20337,-0.20336 0.20337,-0.40016 0.20337,0 0.20337,-0.40672 0.20337,-1.01027 v -5.64176 c 0,-0.8069 0,-1.20707 -0.20337,-1.41044 0,-0.20337 0,-0.20337 -0.20337,-0.40674 0,0 -0.19682,0 -0.19682,0 -0.20335,0 -0.61009,0 -0.80688,0.20337 z m 0,0"
       style="fill:#000000;fill-opacity:1;fill-rule:nonzero;stroke:none;stroke-width:0.99999994" />
    <path
       inkscape:connector-curvature="0"
       id="path1344"
       d="m 93.31215,82.92561 v 0.40672 c -0.8069,0 -1.21362,0.20337 -1.61379,0.40018 -0.60355,0.20336 -1.01029,0.40674 -1.41045,0.8069 -0.40674,0.40674 -0.60353,1.01027 -1.01027,1.41044 -0.1968,0.60355 -0.40017,1.21364 -0.60354,1.81717 0.60354,-0.40672 1.41044,-0.80691 2.21735,-0.80691 0.60353,0 1.20708,0.40019 1.81718,1.00372 0.40016,0.6101 0.80033,1.21364 0.80033,2.21733 0,0.80692 -0.40017,1.61382 -0.80033,2.21737 -0.6101,1.01026 -1.61382,1.41044 -2.62409,1.41044 -0.60354,0 -1.20707,-0.19682 -1.81062,-0.80692 -0.8069,-0.80033 -1.41043,-2.01397 -1.41043,-3.42441 0,-1.00371 0.19681,-1.81062 0.60353,-2.61753 0.40019,-0.80689 0.8069,-1.61379 1.61382,-2.21733 0.60354,-0.80691 1.41044,-1.20708 2.01397,-1.41045 0.60355,-0.20336 1.20708,-0.40672 1.61382,-0.40672 z m -4.84141,5.44496 c 0,0.60353 -0.19682,1.20707 -0.19682,1.61381 0,0.60352 0.19682,1.0037 0.40018,1.60724 0.20337,0.6101 0.40674,1.01027 0.8069,1.41043 0.20338,0.20336 0.60354,0.40674 0.80691,0.40674 0.60354,0 1.01026,-0.20338 1.20707,-0.60354 0.40673,-0.40672 0.60355,-1.01027 0.60355,-1.81717 0,-1.0037 -0.19682,-1.61382 -0.60355,-2.41415 -0.19681,-0.6101 -0.80691,-0.80691 -1.41044,-0.80691 -0.20337,0 -0.40016,0 -0.60354,0 -0.20336,0.19681 -0.60353,0.40017 -1.01026,0.60355 z m 0,0"
       style="fill:#000000;fill-opacity:1;fill-rule:nonzero;stroke:none;stroke-width:0.99999994" />
  </g>
  <path
     style="fill:#000000;fill-opacity:1;fill-rule:nonzero;stroke:none;stroke-width:0.99999994"
     d="m 19.54938,191.35244 7.0522,-3.2276 v 0.60353 l -6.04194,2.62407 6.04194,2.82089 v 0.60353 l -7.0522,-3.22106 z m 0,0"
     id="path1346"
     inkscape:connector-curvature="0" />
  <path
     style="fill:#000000;fill-opacity:1;fill-rule:nonzero;stroke:none;stroke-width:0.99999994"
     d="m 25.80123,191.35244 7.24901,-3.2276 v 0.60353 l -6.24531,2.62407 6.24531,2.82089 v 0.60353 l -7.24901,-3.22106 z m 0,0"
     id="path1348"
     inkscape:connector-curvature="0" />
  <path
     style="fill:#000000;fill-opacity:1;fill-rule:nonzero;stroke:none;stroke-width:0.99999994"
     d="m 32.04653,191.35244 7.25558,-3.2276 v 0.60353 l -6.25187,2.62407 6.25187,2.82089 v 0.60353 l -7.25558,-3.22106 z m 0,0"
     id="path1350"
     inkscape:connector-curvature="0" />
  <path
     style="fill:#000000;fill-opacity:1;fill-rule:nonzero;stroke:none;stroke-width:0.99999994"
     d="m 41.11271,186.71438 2.42072,-1.20708 h 0.20337 v 8.66603 c 0,0.60353 0,1.00369 0.1968,1.00369 0,0.20338 0,0.40674 0.20336,0.40674 0.20338,0 0.60354,0.20338 1.01028,0.20338 v 0.1968 h -3.83115 v -0.1968 c 0.40017,0 0.60354,-0.20338 0.80689,-0.20338 0.20337,0 0.20337,-0.20336 0.40019,-0.40674 0,0 0,-0.40016 0,-1.00369 v -5.64178 c 0,-0.60352 0,-1.21362 0,-1.41043 0,-0.20336 -0.19682,-0.20336 -0.19682,-0.40674 -0.20337,0 -0.20337,0 -0.40672,0 -0.20337,0 -0.40018,0 -0.80692,0.20338 z m 0,0"
     id="path1352"
     inkscape:connector-curvature="0" />
  <path
     style="fill:#000000;fill-opacity:1;fill-rule:nonzero;stroke:none;stroke-width:0.99999994"
     d="m 54.01006,185.5073 v 0.20338 c -0.60356,0 -1.20708,0.1968 -1.60725,0.40018 -0.40674,0.20336 -0.8069,0.40671 -1.21364,1.01026 -0.40017,0.40017 -0.80691,0.80691 -1.00371,1.20707 -0.40672,0.60353 -0.6101,1.20708 -0.8069,1.81061 0.8069,-0.40017 1.41044,-0.60353 2.21735,-0.60353 0.8069,0 1.41043,0.20336 1.81059,0.80691 0.60356,0.60352 0.80692,1.21362 0.80692,2.21733 0,0.80691 -0.20336,1.61382 -0.80692,2.21735 -0.60352,1.01028 -1.41043,1.41044 -2.41415,1.41044 -0.80689,0 -1.41699,-0.20336 -1.81717,-0.8069 -1.01026,-0.80691 -1.41043,-2.01397 -1.41043,-3.42442 0,-1.01028 0.20336,-1.81718 0.40017,-2.61752 0.40674,-0.80691 1.01026,-1.61381 1.61382,-2.21734 0.8069,-0.60355 1.41043,-1.21364 2.01397,-1.41044 0.6101,-0.20338 1.21363,-0.20338 1.81717,-0.20338 z m -4.6315,5.24161 c -0.20338,0.60353 -0.20338,1.20707 -0.20338,1.60725 0,0.61009 0,1.01026 0.20338,1.61379 0.1968,0.60354 0.40018,1.01028 0.8069,1.41045 0.1968,0.20336 0.60354,0.40674 1.00371,0.40674 0.40674,0 0.8069,-0.20338 1.21364,-0.61012 0.1968,-0.40016 0.40017,-1.00369 0.40017,-1.81059 0,-1.01027 -0.20337,-1.61382 -0.40017,-2.21735 -0.40674,-0.8069 -0.8069,-1.01028 -1.61381,-1.01028 0,0 -0.40674,0 -0.60354,0 -0.20337,0.20338 -0.40672,0.40674 -0.8069,0.61011 z m 0,0"
     id="path1354"
     inkscape:connector-curvature="0" />
  <path
     style="fill:#000000;fill-opacity:1;fill-rule:nonzero;stroke:none;stroke-width:0.99999994"
     d="m 192.46289,189.53527 7.05219,-3.0177 v 0.40019 l -6.04192,2.82087 6.04192,2.61753 v 0.61009 l -7.05219,-3.02424 z m 0,0"
     id="path1356"
     inkscape:connector-curvature="0" />
  <path
     style="fill:#000000;fill-opacity:1;fill-rule:nonzero;stroke:none;stroke-width:0.99999994"
     d="m 198.70819,189.53527 7.25557,-3.0177 v 0.40019 l -6.2453,2.82087 6.2453,2.61753 v 0.61009 l -7.25557,-3.02424 z m 0,0"
     id="path1358"
     inkscape:connector-curvature="0" />
  <path
     style="fill:#000000;fill-opacity:1;fill-rule:nonzero;stroke:none;stroke-width:0.99999994"
     d="m 204.96004,189.53527 7.25557,-3.0177 v 0.40019 l -6.25185,2.82087 6.25185,2.61753 v 0.61009 l -7.25557,-3.02424 z m 0,0"
     id="path1360"
     inkscape:connector-curvature="0" />
  <path
     style="fill:#000000;fill-opacity:1;fill-rule:nonzero;stroke:none;stroke-width:0.99999994"
     d="m 214.02623,184.90378 2.42072,-1.21365 h 0.1968 v 8.66603 c 0,0.61009 0.20337,1.01027 0.20337,1.21362 0,0 0.20335,0.19681 0.20335,0.19681 0.20337,0.20336 0.60356,0.20336 1.00372,0.20336 v 0.20338 h -3.82459 v -0.20338 c 0.40016,0 0.8069,0 0.8069,-0.20336 0.1968,0 0.40017,0 0.40017,-0.19681 0,-0.20335 0,-0.60353 0,-1.21362 v -5.4384 c 0,-0.8069 0,-1.20708 0,-1.61381 0,0 -0.20337,-0.20337 -0.20337,-0.20337 -0.1968,-0.1968 -0.1968,-0.1968 -0.40016,-0.1968 -0.20338,0 -0.40674,0.1968 -0.80691,0.1968 z m 0,0"
     id="path1362"
     inkscape:connector-curvature="0" />
  <path
     style="fill:#000000;fill-opacity:1;fill-rule:nonzero;stroke:none;stroke-width:0.99999994"
     d="m 226.92357,183.69013 v 0.20337 c -0.60354,0.20337 -1.20707,0.20337 -1.61381,0.40673 -0.40016,0.19682 -0.8069,0.60355 -1.20707,1.00372 -0.40017,0.40673 -0.80691,0.80691 -1.01026,1.41043 -0.40018,0.40674 -0.60356,1.01027 -0.80036,1.81717 0.80036,-0.60352 1.41045,-0.8069 2.21079,-0.8069 0.8069,0 1.41043,0.20338 1.81717,0.8069 0.60354,0.60355 0.8069,1.41046 0.8069,2.21736 0,0.80689 -0.20336,1.60725 -0.8069,2.41415 -0.60353,0.80689 -1.41043,1.21363 -2.4207,1.21363 -0.8069,0 -1.41046,-0.20336 -1.81062,-0.6101 -1.01027,-1.00372 -1.41043,-2.21079 -1.41043,-3.62779 0,-0.80034 0.19679,-1.81061 0.40016,-2.61751 0.40674,-0.80691 1.01027,-1.61381 1.61381,-2.21734 0.80689,-0.60355 1.41044,-1.00372 2.01397,-1.20708 0.60354,-0.20337 1.20707,-0.40674 1.81718,-0.40674 z m -4.6315,5.44497 c -0.20336,0.60353 -0.20336,1.20708 -0.20336,1.61381 0,0.40017 0,1.0037 0.20336,1.60725 0.1968,0.40671 0.40018,1.01027 0.80036,1.21362 0.20335,0.40017 0.61009,0.40017 1.01026,0.40017 0.40017,0 0.80691,-0.20336 1.20707,-0.60352 0.20336,-0.40018 0.40674,-1.01027 0.40674,-1.81063 0,-0.80689 0,-1.61379 -0.40674,-2.21734 -0.40016,-0.61009 -0.8069,-1.01027 -1.60724,-1.01027 0,0 -0.20338,0 -0.61009,0.20336 -0.19682,0 -0.40018,0.19682 -0.80036,0.60355 z m 0,0"
     id="path1364"
     inkscape:connector-curvature="0" />
  <path
     style="fill:#000000;fill-opacity:1;fill-rule:nonzero;stroke:none;stroke-width:0.99999994"
     d="m 190.6457,35.16742 7.25559,-3.02425 v 0.60352 l -6.2453,2.62408 6.2453,2.82089 v 0.60355 l -7.25559,-3.22763 z m 0,0"
     id="path1366"
     inkscape:connector-curvature="0" />
  <path
     style="fill:#000000;fill-opacity:1;fill-rule:nonzero;stroke:none;stroke-width:0.99999994"
     d="m 196.89757,35.16742 7.25557,-3.02425 v 0.60352 l -6.25185,2.62408 6.25185,2.82089 v 0.60355 l -7.25557,-3.22763 z m 0,0"
     id="path1368"
     inkscape:connector-curvature="0" />
  <path
     style="fill:#000000;fill-opacity:1;fill-rule:nonzero;stroke:none;stroke-width:0.99999994"
     d="m 203.34624,35.16742 7.0522,-3.02425 v 0.60352 l -6.04849,2.62408 6.04849,2.82089 v 0.60355 l -7.0522,-3.22763 z m 0,0"
     id="path1370"
     inkscape:connector-curvature="0" />
  <path
     style="fill:#000000;fill-opacity:1;fill-rule:nonzero;stroke:none;stroke-width:0.99999994"
     d="m 212.21561,30.73273 2.61753,-1.41045 h 0.20336 v 8.86938 c 0,0.60355 0,0.80034 0,1.00371 0,0.20337 0.1968,0.20337 0.40017,0.40674 0,0 0.40017,0 0.8069,0 v 0.40017 h -3.83114 v -0.40017 c 0.40673,0 0.8069,0 1.01025,0 0,-0.20337 0.20338,-0.20337 0.20338,-0.40674 0,0 0.19681,-0.40016 0.19681,-1.00371 v -5.64833 c 0,-0.80033 -0.19681,-1.20707 -0.19681,-1.41043 0,-0.19681 0,-0.19681 -0.20338,-0.40017 0,0 -0.20335,0 -0.20335,0 -0.20336,0 -0.60353,0 -0.8069,0.20336 z m 0,0"
     id="path1372"
     inkscape:connector-curvature="0" />
  <path
     style="fill:#000000;fill-opacity:1;fill-rule:nonzero;stroke:none;stroke-width:0.99999994"
     d="m 225.11296,29.32228 v 0.40017 c -0.6101,0 -1.21363,0.20338 -1.61382,0.40673 -0.40671,0.20336 -0.80689,0.40018 -1.20707,0.80691 -0.40672,0.40017 -0.80689,1.00371 -1.01027,1.41044 -0.20336,0.60354 -0.40673,1.20707 -0.60352,1.81062 0.60352,-0.40018 1.41043,-0.8069 2.21733,-0.8069 0.60353,0 1.20708,0.40672 1.81061,1.01025 0.40674,0.60355 0.8069,1.20708 0.8069,2.21735 0,0.8069 -0.40016,1.61381 -0.8069,2.21736 -0.60353,1.00369 -1.61379,1.41043 -2.61751,1.41043 -0.60353,0 -1.21364,-0.20336 -1.81717,-0.8069 -0.80691,-0.80691 -1.41044,-2.01399 -1.41044,-3.42442 0,-1.01027 0.20336,-1.81717 0.60353,-2.62407 0.40673,-0.80692 0.80691,-1.60725 1.61381,-2.21735 0.60353,-0.80036 1.21363,-1.20707 2.01399,-1.41045 0.61009,-0.19679 1.21361,-0.40017 1.61379,-0.40017 z m -4.63806,5.4384 c 0,0.61009 -0.20336,1.21364 -0.20336,1.61381 0,0.60355 0.20336,1.01026 0.40674,1.6138 0.19679,0.60354 0.40016,1.00371 0.8069,1.41045 0.19679,0.20337 0.40017,0.40016 0.80689,0.40016 0.60354,0 1.00371,-0.19679 1.20707,-0.60353 0.40019,-0.40016 0.60355,-1.20708 0.60355,-1.81062 0,-1.01026 -0.20336,-1.61379 -0.60355,-2.4207 -0.20336,-0.60355 -0.80689,-0.8069 -1.41043,-0.8069 -0.20336,0 -0.40674,0 -0.60353,0 -0.20338,0.20335 -0.61011,0.40673 -1.01028,0.60353 z m 0,0"
     id="path1374"
     inkscape:connector-curvature="0" />
  <path
     inkscape:connector-curvature="0"
     id="path6721"
     d="m 125.15203,95.626125 c 9.46637,0 17.33204,7.655755 17.33204,17.332025 0,9.47292 -7.86567,17.12866 -17.33204,17.12866 -9.47291,0 -17.33203,-7.65574 -17.33203,-17.12866 0,-9.67627 7.85912,-17.332025 17.33203,-17.332025 z m 0,0"
     style="fill:#ffff00;stroke:#000000;stroke-width:0.59999996;stroke-linecap:butt;stroke-linejoin:miter;stroke-miterlimit:2;stroke-opacity:1" />
  <g
     id="g6881"
     transform="matrix(1.6929176,0,0,1.6929176,-36.994584,18.972541)"
     style="stroke-width:0.59069622">
    <g
       word-spacing="normal"
       letter-spacing="normal"
       font-size-adjust="none"
       font-stretch="normal"
       font-weight="normal"
       font-variant="normal"
       font-style="normal"
       stroke-miterlimit="10.433"
       xml:space="preserve"
       transform="matrix(0.32215654,0,0,-0.32215654,-56.377395,188.48085)"
       id="content"
       style="font-style:normal;font-variant:normal;font-weight:normal;font-stretch:normal;letter-spacing:normal;word-spacing:normal;text-anchor:start;fill:none;fill-opacity:1;fill-rule:evenodd;stroke:#000000;stroke-width:0.59069622;stroke-linecap:butt;stroke-linejoin:miter;stroke-miterlimit:10.43299961;stroke-dasharray:none;stroke-dashoffset:0;stroke-opacity:1"><path
         id="path6874"
         d="m 462.14,410.34 0.25,0.27 0.24,0.25 0.24,0.25 0.23,0.24 0.22,0.23 0.22,0.22 0.21,0.22 0.2,0.21 0.2,0.2 0.2,0.19 0.19,0.19 0.19,0.19 0.18,0.17 0.19,0.18 0.35,0.33 0.34,0.32 0.33,0.3 0.33,0.29 0.32,0.29 0.65,0.56 0.33,0.29 0.33,0.28 c 0,0.05 3.08,2.69 4.88,4.49 4.73,4.64 5.83,7.03 5.83,7.21 0,0.5 -0.46,0.5 -0.55,0.5 -0.35,0 -0.5,-0.09 -0.75,-0.54 -1.49,-2.39 -2.53,-3.19 -3.74,-3.19 -1.2,0 -1.79,0.75 -2.54,1.59 -0.94,1.16 -1.78,2.14 -3.44,2.14 -3.73,0 -6.02,-4.62 -6.02,-5.67 0,-0.25 0.14,-0.54 0.6,-0.54 0.45,0 0.54,0.25 0.64,0.54 0.95,2.3 3.84,2.35 4.23,2.35 1.05,0 2,-0.36 3.14,-0.75 2,-0.75 2.55,-0.75 3.85,-0.75 -1.8,-2.14 -5.99,-5.74 -6.92,-6.53 l -4.49,-4.18 c -3.39,-3.34 -5.14,-6.18 -5.14,-6.53 0,-0.5 0.5,-0.5 0.59,-0.5 0.41,0 0.5,0.1 0.8,0.64 1.16,1.75 2.64,3.1 4.24,3.1 1.15,0 1.65,-0.46 2.89,-1.89 0.86,-1.05 1.75,-1.85 3.18,-1.85 4.94,0 7.83,6.33 7.83,7.67 0,0.25 -0.2,0.5 -0.59,0.5 -0.46,0 -0.55,-0.29 -0.71,-0.65 -1.14,-3.24 -4.32,-4.17 -5.98,-4.17 -0.98,0 -1.89,0.29 -2.94,0.64 -1.68,0.64 -2.43,0.84 -3.48,0.84 -0.1,0 -0.89,0 -1.35,-0.14 z"
         inkscape:connector-curvature="0"
         style="fill:#000000;stroke-width:0" /><path
         id="path6876"
         d="m 489.98,420.54 v 0.05 l -0.01,0.06 v 0.05 l -0.01,0.06 -0.01,0.05 -0.02,0.06 -0.02,0.05 -0.01,0.06 -0.03,0.06 -0.02,0.05 -0.03,0.06 -0.03,0.05 -0.03,0.06 -0.04,0.05 -0.04,0.05 -0.04,0.05 -0.04,0.05 -0.05,0.05 -0.05,0.04 -0.05,0.05 -0.06,0.04 -0.06,0.03 -0.06,0.04 -0.06,0.03 -0.07,0.03 -0.07,0.03 -0.08,0.02 -0.08,0.02 -0.08,0.01 -0.08,0.01 -0.09,0.01 h -0.09 c -0.94,0 -1.95,-0.91 -1.95,-1.92 0,-0.59 0.45,-1.33 1.4,-1.33 1,0 1.96,0.99 1.96,1.92 z"
         inkscape:connector-curvature="0"
         style="fill:#000000;stroke-width:0" /><path
         id="path6878"
         d="m 482.87,402.84 -0.06,-0.17 -0.05,-0.17 -0.03,-0.08 -0.02,-0.09 -0.03,-0.08 -0.02,-0.09 -0.02,-0.09 -0.02,-0.09 -0.02,-0.1 -0.02,-0.09 -0.01,-0.1 v -0.05 l -0.01,-0.05 v -0.06 -0.05 -0.05 l -0.01,-0.06 c 0,-1.64 1.4,-2.95 3.3,-2.95 3.49,0 5.03,4.79 5.03,5.33 0,0.45 -0.45,0.45 -0.56,0.45 -0.48,0 -0.53,-0.2 -0.67,-0.59 -0.8,-2.79 -2.33,-4.22 -3.69,-4.22 -0.7,0 -0.87,0.45 -0.87,1.22 0,0.79 0.25,1.46 0.56,2.23 0.34,0.94 0.73,1.87 1.11,2.78 0.31,0.84 1.58,4.02 1.72,4.44 0.09,0.34 0.2,0.76 0.2,1.11 0,1.64 -1.39,2.95 -3.31,2.95 -3.46,0 -5.05,-4.73 -5.05,-5.33 0,-0.45 0.48,-0.45 0.59,-0.45 0.49,0 0.52,0.17 0.63,0.56 0.91,3 2.44,4.25 3.72,4.25 0.56,0 0.87,-0.28 0.87,-1.22 0,-0.79 -0.2,-1.32 -1.08,-3.48 z"
         inkscape:connector-curvature="0"
         style="fill:#000000;stroke-width:0" /></g>  </g>
</svg>
